<?xml version="1.0" encoding="utf-8"?>
<svg version="1.1" xmlns:xlink="http://www.w3.org/1999/xlink" width="689px" height="689px" xmlns="http://www.w3.org/2000/svg">
  <defs>
    <pattern id="BGPattern" patternUnits="userSpaceOnUse" alignment="0 0" imageRepeat="None" />
    <mask fill="white" id="Clip2496">
      <path d="M 0 344.5  C 0 151.57999999999998  151.57999999999998 0  344.5 0  C 537.4200000000001 0  689 151.57999999999998  689 344.5  C 689 537.4200000000001  537.4200000000001 689  344.5 689  C 151.57999999999998 689  0 537.4200000000001  0 344.5  Z " fill-rule="evenodd" />
    </mask>
  </defs>
  <g transform="matrix(1 0 0 1 -612 -285 )">
    <path d="M 0 344.5  C 0 151.57999999999998  151.57999999999998 0  344.5 0  C 537.4200000000001 0  689 151.57999999999998  689 344.5  C 689 537.4200000000001  537.4200000000001 689  344.5 689  C 151.57999999999998 689  0 537.4200000000001  0 344.5  Z " fill-rule="nonzero" fill="rgba(217, 0, 27, 0.12156862745098039)" stroke="none" transform="matrix(1 0 0 1 612 285 )" class="fill" />
    <path d="M 0 344.5  C 0 151.57999999999998  151.57999999999998 0  344.5 0  C 537.4200000000001 0  689 151.57999999999998  689 344.5  C 689 537.4200000000001  537.4200000000001 689  344.5 689  C 151.57999999999998 689  0 537.4200000000001  0 344.5  Z " stroke-width="0" stroke-dasharray="0" stroke="rgba(121, 121, 121, 1)" fill="none" transform="matrix(1 0 0 1 612 285 )" class="stroke" mask="url(#Clip2496)" />
  </g>
</svg>