<?xml version="1.0" encoding="utf-8"?>
<svg version="1.1" xmlns:xlink="http://www.w3.org/1999/xlink" width="62px" height="46px" xmlns="http://www.w3.org/2000/svg">
  <defs>
    <pattern id="BGPattern" patternUnits="userSpaceOnUse" alignment="0 0" imageRepeat="None" />
    <mask fill="white" id="Clip233">
      <path d="M 0 46  L 0 0  L 62 0  L 62 46  L 0 46  Z " fill-rule="evenodd" />
    </mask>
    <mask fill="white" id="Clip234">
      <path d="M 19 15  L 45 15  L 45 34  L 19 34  Z M 0 0  L 62 0  L 62 46  L 0 46  Z " fill-rule="evenodd" />
    </mask>
  </defs>
  <g transform="matrix(1 0 0 1 -1285 -567 )">
    <path d="M 0 46  L 0 0  L 62 0  L 62 46  L 0 46  Z " fill-rule="nonzero" fill="rgba(242, 242, 242, 1)" stroke="none" transform="matrix(1 0 0 1 1285 567 )" class="fill" />
    <path d="M 0 46  L 0 0  L 62 0  L 62 46  L 0 46  Z " stroke-width="2" stroke-dasharray="0" stroke="rgba(121, 121, 121, 1)" fill="none" transform="matrix(1 0 0 1 1285 567 )" class="stroke" mask="url(#Clip233)" />
    <path d="M 61.45878176358156 0.40154901411690086  L 0.5412182364184316 45.5984509858831  M 0.5412182364184316 0.40154901411690086  L 61.45878176358156 45.5984509858831  " stroke-width="1" stroke-dasharray="0" stroke="rgba(121, 121, 121, 1)" fill="none" transform="matrix(1 0 0 1 1285 567 )" class="stroke" mask="url(#Clip234)" />
  </g>
</svg>