<?xml version="1.0" encoding="utf-8"?>
<svg version="1.1" xmlns:xlink="http://www.w3.org/1999/xlink" width="1920px" height="1000px" xmlns="http://www.w3.org/2000/svg">
  <defs>
    <pattern id="BGPattern" patternUnits="userSpaceOnUse" alignment="0 0" imageRepeat="None" />
    <mask fill="white" id="Clip744">
      <path d="M 0 1000  L 0 0  L 1920 0  L 1920 1000  L 0 1000  Z " fill-rule="evenodd" />
    </mask>
    <mask fill="white" id="Clip745">
      <path d="M 924.5 489  L 997.5 489  L 997.5 514  L 924.5 514  Z M 0 0  L 1920 0  L 1920 1000  L 0 1000  Z " fill-rule="evenodd" />
    </mask>
  </defs>
  <g transform="matrix(1 0 0 1 0 -80 )">
    <path d="M 0 1000  L 0 0  L 1920 0  L 1920 1000  L 0 1000  Z " fill-rule="nonzero" fill="rgba(255, 255, 255, 1)" stroke="none" transform="matrix(1 0 0 1 0 80 )" class="fill" />
    <path d="M 0 1000  L 0 0  L 1920 0  L 1920 1000  L 0 1000  Z " stroke-width="2" stroke-dasharray="0" stroke="rgba(121, 121, 121, 1)" fill="none" transform="matrix(1 0 0 1 0 80 )" class="stroke" mask="url(#Clip744)" />
    <path d="M 1919.1485624791997 0.44345704208348974  L 0.8514375208003003 999.5565429579165  M 0.8514375208003003 0.44345704208348974  L 1919.1485624791997 999.5565429579165  " stroke-width="1" stroke-dasharray="0" stroke="rgba(121, 121, 121, 1)" fill="none" transform="matrix(1 0 0 1 0 80 )" class="stroke" mask="url(#Clip745)" />
  </g>
</svg>