<?xml version="1.0" encoding="utf-8"?>
<svg version="1.1" xmlns:xlink="http://www.w3.org/1999/xlink" width="77px" height="88px" xmlns="http://www.w3.org/2000/svg">
  <defs>
    <pattern id="BGPattern" patternUnits="userSpaceOnUse" alignment="0 0" imageRepeat="None" />
    <mask fill="white" id="Clip1855">
      <path d="M 0 78  L 0 0  L 67 0  L 67 78  L 0 78  Z " fill-rule="evenodd" />
    </mask>
    <mask fill="white" id="Clip1856">
      <path d="M 15 23  L 54 23  L 54 57  L 15 57  Z M 0 0  L 67 0  L 67 78  L 0 78  Z " fill-rule="evenodd" />
    </mask>
  </defs>
  <g transform="matrix(1 0 0 1 -228 0 )">
    <path d="M 0 78  L 0 0  L 67 0  L 67 78  L 0 78  Z " fill-rule="nonzero" fill="rgba(242, 242, 242, 1)" stroke="none" transform="matrix(1 0 0 1 228 0 )" class="fill" />
    <path d="M 0 78  L 0 0  L 67 0  L 67 78  L 0 78  Z " stroke-width="2" stroke-dasharray="0" stroke="rgba(2, 167, 240, 1)" fill="none" transform="matrix(1 0 0 1 228 0 )" class="stroke" mask="url(#Clip1855)" />
    <path d="M 66.62071515423025 0.4415554920901633  L 0.3792848457697557 77.55844450790984  M 0.3792848457697557 0.4415554920901633  L 66.62071515423025 77.55844450790984  " stroke-width="1" stroke-dasharray="0" stroke="rgba(2, 167, 240, 1)" fill="none" transform="matrix(1 0 0 1 228 0 )" class="stroke" mask="url(#Clip1856)" />
  </g>
  <style>svg { filter: drop-shadow(5px 5px 2.5px rgba(0, 0, 0, 0.34901960784313724)); }</style>
</svg>