<?xml version="1.0" encoding="utf-8"?>
<svg version="1.1" xmlns:xlink="http://www.w3.org/1999/xlink" width="31px" height="28px" xmlns="http://www.w3.org/2000/svg">
  <defs>
    <pattern id="BGPattern" patternUnits="userSpaceOnUse" alignment="0 0" imageRepeat="None" />
    <mask fill="white" id="Clip2118">
      <path d="M 0 28  L 0 0  L 31 0  L 31 28  L 0 28  Z " fill-rule="evenodd" />
    </mask>
  </defs>
  <g transform="matrix(1 0 0 1 -550 -93 )">
    <path d="M 0 28  L 0 0  L 31 0  L 31 28  L 0 28  Z " fill-rule="nonzero" fill="rgba(242, 242, 242, 1)" stroke="none" transform="matrix(1 0 0 1 550 93 )" class="fill" />
    <path d="M 0 28  L 0 0  L 31 0  L 31 28  L 0 28  Z " stroke-width="2" stroke-dasharray="0" stroke="rgba(121, 121, 121, 1)" fill="none" transform="matrix(1 0 0 1 550 93 )" class="stroke" mask="url(#Clip2118)" />
    <path d="M 30.58919317990562 0.3710513213755691  L 0.41080682009438013 27.628948678624432  M 0.41080682009438013 0.3710513213755691  L 30.58919317990562 27.628948678624432  " stroke-width="1" stroke-dasharray="0" stroke="rgba(121, 121, 121, 1)" fill="none" transform="matrix(1 0 0 1 550 93 )" class="stroke" />
  </g>
</svg>