<?xml version="1.0" encoding="utf-8"?>
<svg version="1.1" xmlns:xlink="http://www.w3.org/1999/xlink" width="50px" height="40px" xmlns="http://www.w3.org/2000/svg">
  <defs>
    <pattern id="BGPattern" patternUnits="userSpaceOnUse" alignment="0 0" imageRepeat="None" />
    <mask fill="white" id="Clip1068">
      <path d="M 26.07902896341463 11.693222155472789  C 29.225955792682925 13.65859348792503  31.598638719512184 16.85862117025112  32.5477118902439 20.61298435660219  C 33.07219969512194 20.537393151507874  33.571711890243904 20.486999014778327  34.07122408536585 20.486999014778327  C 36.194150914634136 20.486999014778327  38.16722408536584 21.091728655532865  39.86556554878049 22.150005526853302  C 41.63883384146341 20.512196083143106  42.762736280487815 18.194065793584052  42.762736280487815 15.548373615282955  C 42.762736280487815 10.634945284152353  38.8165899390244 6.679005550883099  33.971321646341465 6.679005550883099  C 30.499711890243898 6.679005550883099  27.4776631097561 8.719968088429656  26.07902896341463 11.693222155472789  Z M 49.83083384146343 16.07751205094317  C 49.83083384146343 15.069629316352277  49.0316143292683 14.288520197044338  48.05756554878049 14.288520197044335  L 45.7098582317073 14.288520197044335  C 44.73580945121951 14.288520197044335  43.93658993902439 15.069629316352277  43.93658993902439 16.077512050943167  C 43.93658993902439 17.085394785534056  44.73580945121951 17.866503904842006  45.7098582317073 17.866503904842006  L 48.05756554878049 17.866503904842006  C 49.0316143292683 17.866503904842006  49.83083384146343 17.085394785534064  49.83083384146343 16.07751205094317  Z M 22.632394817073177 7.258538123272857  L 24.305760670731715 8.946741703712602  C 24.980102134146343 9.627062549561456  26.128980182926842 9.627062549561456  26.803321646341473 8.946741703712602  C 27.4776631097561 8.26642085786375  27.4776631097561 7.1325527814489975  26.803321646341473 6.427034867235371  L 25.129955792682935 4.764028355160399  C 24.455614329268283 4.083707509311545  23.306736280487804 4.083707509311545  22.632394817073177 4.764028355160399  C 21.958053353658546 5.444349201009252  21.958053353658546 6.578217277424007  22.632394817073177 7.258538123272857  Z M 45.185370426829266 7.283735191637627  C 45.859711890243894 6.578217277424004  45.859711890243894 5.469546269374021  45.185370426829266 4.789225423525171  C 44.51102896341463 4.108904577676318  43.36215091463416 4.108904577676318  42.68780945121951 4.789225423525171  L 41.01444359756097 6.452231935600144  C 40.340102134146335 7.1325527814489975  40.340102134146335 8.26642085786375  41.01444359756097 8.971938772077376  C 41.6887850609756 9.627062549561456  42.8126875 9.627062549561456  43.51200457317073 8.946741703712602  L 45.185370426829266 7.283735191637627  Z M 32.123126524390244 4.209692851135408  C 32.123126524390244 5.217575585726303  32.92234603658537 5.998684705034241  33.89639481707319 5.998684705034241  C 34.87044359756097 5.998684705034241  35.6696631097561 5.2175755857262995  35.6696631097561 4.209692851135408  L 35.6696631097561 1.841168424846811  C 35.6696631097561 0.858482758620691  34.87044359756097 0.052176570947976744  33.89639481707319 0.052176570947976744  C 32.92234603658537 0.052176570947976744  32.123126524390244 0.8332856902559171  32.123126524390244 1.841168424846811  L 32.123126524390244 4.209692851135408  Z M 29.97522408536586 24.77050063678962  C 31.17405335365855 24.064982722575998  32.5726875 23.510647218551  34.07122408536587 23.510647218551  C 38.56683384146342 23.510647218551  42.213272865853654 27.290207473266847  42.213272865853654 31.8004827105611  C 42.213272865853654 36.03359019584284  38.96644359756098 39.561179766910975  34.87044359756097 40  L 7.996687499999999 40  C 3.4011753048780458 39.30920908326325  0.12937042682927835 35.252481076534906  0.12937042682927835 30.465038087228166  C 0.12937042682927835 25.97995991829869  3.201370426829264 22.22559673194762  7.347321646341465 21.217713997356725  C 8.696004573170724 16.304285666226118  13.291516768292677 12.549922479875047  18.586346036585375 12.549922479875047  C 24.980102134146343 12.549922479875047  30.000199695121953 17.942095109936325  30.000199695121953 24.31695340622372  C 30.000199695121953 24.468135816412357  29.97522408536586 24.59412115823621  29.97522408536586 24.77050063678962  Z " fill-rule="evenodd" />
    </mask>
  </defs>
  <g transform="matrix(1 0 0 1 -1451 -25 )">
    <path d="M 26.07902896341463 11.693222155472789  C 29.225955792682925 13.65859348792503  31.598638719512184 16.85862117025112  32.5477118902439 20.61298435660219  C 33.07219969512194 20.537393151507874  33.571711890243904 20.486999014778327  34.07122408536585 20.486999014778327  C 36.194150914634136 20.486999014778327  38.16722408536584 21.091728655532865  39.86556554878049 22.150005526853302  C 41.63883384146341 20.512196083143106  42.762736280487815 18.194065793584052  42.762736280487815 15.548373615282955  C 42.762736280487815 10.634945284152353  38.8165899390244 6.679005550883099  33.971321646341465 6.679005550883099  C 30.499711890243898 6.679005550883099  27.4776631097561 8.719968088429656  26.07902896341463 11.693222155472789  Z M 49.83083384146343 16.07751205094317  C 49.83083384146343 15.069629316352277  49.0316143292683 14.288520197044338  48.05756554878049 14.288520197044335  L 45.7098582317073 14.288520197044335  C 44.73580945121951 14.288520197044335  43.93658993902439 15.069629316352277  43.93658993902439 16.077512050943167  C 43.93658993902439 17.085394785534056  44.73580945121951 17.866503904842006  45.7098582317073 17.866503904842006  L 48.05756554878049 17.866503904842006  C 49.0316143292683 17.866503904842006  49.83083384146343 17.085394785534064  49.83083384146343 16.07751205094317  Z M 22.632394817073177 7.258538123272857  L 24.305760670731715 8.946741703712602  C 24.980102134146343 9.627062549561456  26.128980182926842 9.627062549561456  26.803321646341473 8.946741703712602  C 27.4776631097561 8.26642085786375  27.4776631097561 7.1325527814489975  26.803321646341473 6.427034867235371  L 25.129955792682935 4.764028355160399  C 24.455614329268283 4.083707509311545  23.306736280487804 4.083707509311545  22.632394817073177 4.764028355160399  C 21.958053353658546 5.444349201009252  21.958053353658546 6.578217277424007  22.632394817073177 7.258538123272857  Z M 45.185370426829266 7.283735191637627  C 45.859711890243894 6.578217277424004  45.859711890243894 5.469546269374021  45.185370426829266 4.789225423525171  C 44.51102896341463 4.108904577676318  43.36215091463416 4.108904577676318  42.68780945121951 4.789225423525171  L 41.01444359756097 6.452231935600144  C 40.340102134146335 7.1325527814489975  40.340102134146335 8.26642085786375  41.01444359756097 8.971938772077376  C 41.6887850609756 9.627062549561456  42.8126875 9.627062549561456  43.51200457317073 8.946741703712602  L 45.185370426829266 7.283735191637627  Z M 32.123126524390244 4.209692851135408  C 32.123126524390244 5.217575585726303  32.92234603658537 5.998684705034241  33.89639481707319 5.998684705034241  C 34.87044359756097 5.998684705034241  35.6696631097561 5.2175755857262995  35.6696631097561 4.209692851135408  L 35.6696631097561 1.841168424846811  C 35.6696631097561 0.858482758620691  34.87044359756097 0.052176570947976744  33.89639481707319 0.052176570947976744  C 32.92234603658537 0.052176570947976744  32.123126524390244 0.8332856902559171  32.123126524390244 1.841168424846811  L 32.123126524390244 4.209692851135408  Z M 29.97522408536586 24.77050063678962  C 31.17405335365855 24.064982722575998  32.5726875 23.510647218551  34.07122408536587 23.510647218551  C 38.56683384146342 23.510647218551  42.213272865853654 27.290207473266847  42.213272865853654 31.8004827105611  C 42.213272865853654 36.03359019584284  38.96644359756098 39.561179766910975  34.87044359756097 40  L 7.996687499999999 40  C 3.4011753048780458 39.30920908326325  0.12937042682927835 35.252481076534906  0.12937042682927835 30.465038087228166  C 0.12937042682927835 25.97995991829869  3.201370426829264 22.22559673194762  7.347321646341465 21.217713997356725  C 8.696004573170724 16.304285666226118  13.291516768292677 12.549922479875047  18.586346036585375 12.549922479875047  C 24.980102134146343 12.549922479875047  30.000199695121953 17.942095109936325  30.000199695121953 24.31695340622372  C 30.000199695121953 24.468135816412357  29.97522408536586 24.59412115823621  29.97522408536586 24.77050063678962  Z " fill-rule="nonzero" fill="rgba(0, 0, 0, 1)" stroke="none" transform="matrix(1 0 0 1 1451 25 )" class="fill" />
    <path d="M 26.07902896341463 11.693222155472789  C 29.225955792682925 13.65859348792503  31.598638719512184 16.85862117025112  32.5477118902439 20.61298435660219  C 33.07219969512194 20.537393151507874  33.571711890243904 20.486999014778327  34.07122408536585 20.486999014778327  C 36.194150914634136 20.486999014778327  38.16722408536584 21.091728655532865  39.86556554878049 22.150005526853302  C 41.63883384146341 20.512196083143106  42.762736280487815 18.194065793584052  42.762736280487815 15.548373615282955  C 42.762736280487815 10.634945284152353  38.8165899390244 6.679005550883099  33.971321646341465 6.679005550883099  C 30.499711890243898 6.679005550883099  27.4776631097561 8.719968088429656  26.07902896341463 11.693222155472789  Z " stroke-width="0" stroke-dasharray="0" stroke="rgba(255, 255, 255, 0)" fill="none" transform="matrix(1 0 0 1 1451 25 )" class="stroke" mask="url(#Clip1068)" />
    <path d="M 49.83083384146343 16.07751205094317  C 49.83083384146343 15.069629316352277  49.0316143292683 14.288520197044338  48.05756554878049 14.288520197044335  L 45.7098582317073 14.288520197044335  C 44.73580945121951 14.288520197044335  43.93658993902439 15.069629316352277  43.93658993902439 16.077512050943167  C 43.93658993902439 17.085394785534056  44.73580945121951 17.866503904842006  45.7098582317073 17.866503904842006  L 48.05756554878049 17.866503904842006  C 49.0316143292683 17.866503904842006  49.83083384146343 17.085394785534064  49.83083384146343 16.07751205094317  Z " stroke-width="0" stroke-dasharray="0" stroke="rgba(255, 255, 255, 0)" fill="none" transform="matrix(1 0 0 1 1451 25 )" class="stroke" mask="url(#Clip1068)" />
    <path d="M 22.632394817073177 7.258538123272857  L 24.305760670731715 8.946741703712602  C 24.980102134146343 9.627062549561456  26.128980182926842 9.627062549561456  26.803321646341473 8.946741703712602  C 27.4776631097561 8.26642085786375  27.4776631097561 7.1325527814489975  26.803321646341473 6.427034867235371  L 25.129955792682935 4.764028355160399  C 24.455614329268283 4.083707509311545  23.306736280487804 4.083707509311545  22.632394817073177 4.764028355160399  C 21.958053353658546 5.444349201009252  21.958053353658546 6.578217277424007  22.632394817073177 7.258538123272857  Z " stroke-width="0" stroke-dasharray="0" stroke="rgba(255, 255, 255, 0)" fill="none" transform="matrix(1 0 0 1 1451 25 )" class="stroke" mask="url(#Clip1068)" />
    <path d="M 45.185370426829266 7.283735191637627  C 45.859711890243894 6.578217277424004  45.859711890243894 5.469546269374021  45.185370426829266 4.789225423525171  C 44.51102896341463 4.108904577676318  43.36215091463416 4.108904577676318  42.68780945121951 4.789225423525171  L 41.01444359756097 6.452231935600144  C 40.340102134146335 7.1325527814489975  40.340102134146335 8.26642085786375  41.01444359756097 8.971938772077376  C 41.6887850609756 9.627062549561456  42.8126875 9.627062549561456  43.51200457317073 8.946741703712602  L 45.185370426829266 7.283735191637627  Z " stroke-width="0" stroke-dasharray="0" stroke="rgba(255, 255, 255, 0)" fill="none" transform="matrix(1 0 0 1 1451 25 )" class="stroke" mask="url(#Clip1068)" />
    <path d="M 32.123126524390244 4.209692851135408  C 32.123126524390244 5.217575585726303  32.92234603658537 5.998684705034241  33.89639481707319 5.998684705034241  C 34.87044359756097 5.998684705034241  35.6696631097561 5.2175755857262995  35.6696631097561 4.209692851135408  L 35.6696631097561 1.841168424846811  C 35.6696631097561 0.858482758620691  34.87044359756097 0.052176570947976744  33.89639481707319 0.052176570947976744  C 32.92234603658537 0.052176570947976744  32.123126524390244 0.8332856902559171  32.123126524390244 1.841168424846811  L 32.123126524390244 4.209692851135408  Z " stroke-width="0" stroke-dasharray="0" stroke="rgba(255, 255, 255, 0)" fill="none" transform="matrix(1 0 0 1 1451 25 )" class="stroke" mask="url(#Clip1068)" />
    <path d="M 29.97522408536586 24.77050063678962  C 31.17405335365855 24.064982722575998  32.5726875 23.510647218551  34.07122408536587 23.510647218551  C 38.56683384146342 23.510647218551  42.213272865853654 27.290207473266847  42.213272865853654 31.8004827105611  C 42.213272865853654 36.03359019584284  38.96644359756098 39.561179766910975  34.87044359756097 40  L 7.996687499999999 40  C 3.4011753048780458 39.30920908326325  0.12937042682927835 35.252481076534906  0.12937042682927835 30.465038087228166  C 0.12937042682927835 25.97995991829869  3.201370426829264 22.22559673194762  7.347321646341465 21.217713997356725  C 8.696004573170724 16.304285666226118  13.291516768292677 12.549922479875047  18.586346036585375 12.549922479875047  C 24.980102134146343 12.549922479875047  30.000199695121953 17.942095109936325  30.000199695121953 24.31695340622372  C 30.000199695121953 24.468135816412357  29.97522408536586 24.59412115823621  29.97522408536586 24.77050063678962  Z " stroke-width="0" stroke-dasharray="0" stroke="rgba(255, 255, 255, 0)" fill="none" transform="matrix(1 0 0 1 1451 25 )" class="stroke" mask="url(#Clip1068)" />
  </g>
</svg>