<?xml version="1.0" encoding="utf-8"?>
<svg version="1.1" xmlns:xlink="http://www.w3.org/1999/xlink" width="62px" height="46px" xmlns="http://www.w3.org/2000/svg">
  <defs>
    <pattern id="BGPattern" patternUnits="userSpaceOnUse" alignment="0 0" imageRepeat="None" />
    <mask fill="white" id="Clip1876">
      <path d="M 0 46  L 0 0  L 62 0  L 62 46  L 0 46  Z " fill-rule="evenodd" />
    </mask>
    <mask fill="white" id="Clip1877">
      <path d="M 12.5 15  L 51.5 15  L 51.5 34  L 12.5 34  Z M 0 0  L 62 0  L 62 46  L 0 46  Z " fill-rule="evenodd" />
    </mask>
  </defs>
  <g transform="matrix(1 0 0 1 -1050 -233 )">
    <path d="M 0 46  L 0 0  L 62 0  L 62 46  L 0 46  Z " fill-rule="nonzero" fill="rgba(242, 242, 242, 1)" stroke="none" transform="matrix(1 0 0 1 1050 233 )" class="fill" />
    <path d="M 0 46  L 0 0  L 62 0  L 62 46  L 0 46  Z " stroke-width="4" stroke-dasharray="0" stroke="rgba(2, 167, 240, 1)" fill="none" transform="matrix(1 0 0 1 1050 233 )" class="stroke" mask="url(#Clip1876)" />
    <path d="M 60.91756352716314 0.8030980282338017  L 1.0824364728368632 45.1969019717662  M 1.0824364728368632 0.8030980282338017  L 60.91756352716314 45.1969019717662  " stroke-width="2" stroke-dasharray="0" stroke="rgba(2, 167, 240, 1)" fill="none" transform="matrix(1 0 0 1 1050 233 )" class="stroke" mask="url(#Clip1877)" />
  </g>
</svg>