<?xml version="1.0" encoding="utf-8"?>
<svg version="1.1" xmlns:xlink="http://www.w3.org/1999/xlink" width="42px" height="31px" xmlns="http://www.w3.org/2000/svg">
  <defs>
    <pattern id="BGPattern" patternUnits="userSpaceOnUse" alignment="0 0" imageRepeat="None" />
    <mask fill="white" id="Clip323">
      <path d="M 0 31  L 0 0  L 42 0  L 42 31  L 0 31  Z " fill-rule="evenodd" />
    </mask>
    <mask fill="white" id="Clip324">
      <path d="M 9 7  L 35 7  L 35 26  L 9 26  Z M 0 0  L 42 0  L 42 31  L 0 31  Z " fill-rule="evenodd" />
    </mask>
  </defs>
  <g transform="matrix(1 0 0 1 -775 -625 )">
    <path d="M 0 31  L 0 0  L 42 0  L 42 31  L 0 31  Z " fill-rule="nonzero" fill="rgba(242, 242, 242, 1)" stroke="none" transform="matrix(1 0 0 1 775 625 )" class="fill" />
    <path d="M 0 31  L 0 0  L 42 0  L 42 31  L 0 31  Z " stroke-width="2" stroke-dasharray="0" stroke="rgba(121, 121, 121, 1)" fill="none" transform="matrix(1 0 0 1 775 625 )" class="stroke" mask="url(#Clip323)" />
    <path d="M 41.45496594608706 0.4022870397928836  L 0.5450340539129391 30.597712960207115  M 0.5450340539129391 0.4022870397928836  L 41.45496594608706 30.597712960207115  " stroke-width="1" stroke-dasharray="0" stroke="rgba(121, 121, 121, 1)" fill="none" transform="matrix(1 0 0 1 775 625 )" class="stroke" mask="url(#Clip324)" />
  </g>
</svg>