<?xml version="1.0" encoding="utf-8"?>
<svg version="1.1" xmlns:xlink="http://www.w3.org/1999/xlink" width="515px" height="515px" xmlns="http://www.w3.org/2000/svg">
  <defs>
    <pattern id="BGPattern" patternUnits="userSpaceOnUse" alignment="0 0" imageRepeat="None" />
    <mask fill="white" id="Clip92">
      <path d="M 0 257.5  C 0 113.29999999999998  113.29999999999998 0  257.5 0  C 401.7 0  515 113.29999999999998  515 257.5  C 515 401.7  401.7 515  257.5 515  C 113.29999999999998 515  0 401.7  0 257.5  Z " fill-rule="evenodd" />
    </mask>
  </defs>
  <g transform="matrix(1 0 0 1 -736 -369 )">
    <path d="M 0 257.5  C 0 113.29999999999998  113.29999999999998 0  257.5 0  C 401.7 0  515 113.29999999999998  515 257.5  C 515 401.7  401.7 515  257.5 515  C 113.29999999999998 515  0 401.7  0 257.5  Z " fill-rule="nonzero" fill="rgba(255, 255, 255, 0)" stroke="none" transform="matrix(1 0 0 1 736 369 )" class="fill" />
    <path d="M 0 257.5  C 0 113.29999999999998  113.29999999999998 0  257.5 0  C 401.7 0  515 113.29999999999998  515 257.5  C 515 401.7  401.7 515  257.5 515  C 113.29999999999998 515  0 401.7  0 257.5  Z " stroke-width="8" stroke-dasharray="36,16" stroke="rgba(121, 121, 121, 1)" fill="none" transform="matrix(1 0 0 1 736 369 )" class="stroke" mask="url(#Clip92)" />
  </g>
</svg>