<?xml version="1.0" encoding="utf-8"?>
<svg version="1.1" xmlns:xlink="http://www.w3.org/1999/xlink" width="163px" height="68px" xmlns="http://www.w3.org/2000/svg">
  <defs>
    <pattern id="BGPattern" patternUnits="userSpaceOnUse" alignment="0 0" imageRepeat="None" />
    <mask fill="white" id="Clip400">
      <path d="M 0 68  L 0 0  L 163 0  L 163 68  L 0 68  Z " fill-rule="evenodd" />
    </mask>
    <mask fill="white" id="Clip401">
      <path d="M 29 23  L 136 23  L 136 48  L 29 48  Z M 0 0  L 163 0  L 163 68  L 0 68  Z " fill-rule="evenodd" />
    </mask>
  </defs>
  <g transform="matrix(1 0 0 1 -83 -1174 )">
    <path d="M 0 68  L 0 0  L 163 0  L 163 68  L 0 68  Z " fill-rule="nonzero" fill="rgba(242, 242, 242, 1)" stroke="none" transform="matrix(1 0 0 1 83 1174 )" class="fill" />
    <path d="M 0 68  L 0 0  L 163 0  L 163 68  L 0 68  Z " stroke-width="2" stroke-dasharray="0" stroke="rgba(121, 121, 121, 1)" fill="none" transform="matrix(1 0 0 1 83 1174 )" class="stroke" mask="url(#Clip400)" />
    <path d="M 161.89386603543267 0.46145466006489866  L 1.1061339645673305 67.5385453399351  M 1.1061339645673305 0.46145466006489866  L 161.89386603543267 67.5385453399351  " stroke-width="1" stroke-dasharray="0" stroke="rgba(121, 121, 121, 1)" fill="none" transform="matrix(1 0 0 1 83 1174 )" class="stroke" mask="url(#Clip401)" />
  </g>
</svg>