<?xml version="1.0" encoding="utf-8"?>
<svg version="1.1" xmlns:xlink="http://www.w3.org/1999/xlink" width="564px" height="564px" xmlns="http://www.w3.org/2000/svg">
  <defs>
    <pattern id="BGPattern" patternUnits="userSpaceOnUse" alignment="0 0" imageRepeat="None" />
    <mask fill="white" id="Clip95">
      <path d="M 0 282  C 0 124.07999999999998  124.07999999999998 0  282 0  C 439.92 0  564 124.07999999999998  564 282  C 564 439.92  439.92 564  282 564  C 124.07999999999998 564  0 439.92  0 282  Z " fill-rule="evenodd" />
    </mask>
  </defs>
  <g transform="matrix(1 0 0 1 -656 -447 )">
    <path d="M 0 282  C 0 124.07999999999998  124.07999999999998 0  282 0  C 439.92 0  564 124.07999999999998  564 282  C 564 439.92  439.92 564  282 564  C 124.07999999999998 564  0 439.92  0 282  Z " fill-rule="nonzero" fill="rgba(255, 255, 255, 0)" stroke="none" transform="matrix(1 0 0 1 656 447 )" class="fill" />
    <path d="M 0 282  C 0 124.07999999999998  124.07999999999998 0  282 0  C 439.92 0  564 124.07999999999998  564 282  C 564 439.92  439.92 564  282 564  C 124.07999999999998 564  0 439.92  0 282  Z " stroke-width="8" stroke-dasharray="36,16" stroke="rgba(121, 121, 121, 1)" fill="none" transform="matrix(1 0 0 1 656 447 )" class="stroke" mask="url(#Clip95)" />
  </g>
</svg>