<?xml version="1.0" encoding="utf-8"?>
<svg version="1.1" xmlns:xlink="http://www.w3.org/1999/xlink" width="90px" height="26px" xmlns="http://www.w3.org/2000/svg">
  <defs>
    <pattern id="BGPattern" patternUnits="userSpaceOnUse" alignment="0 0" imageRepeat="None" />
    <mask fill="white" id="Clip842">
      <path d="M 0 26  L 0 0  L 90 0  L 90 26  L 0 26  Z " fill-rule="evenodd" />
    </mask>
    <mask fill="white" id="Clip843">
      <path d="M 17 5  L 75 5  L 75 24  L 17 24  Z M 0 0  L 90 0  L 90 26  L 0 26  Z " fill-rule="evenodd" />
    </mask>
  </defs>
  <g transform="matrix(1 0 0 1 -1331 -32 )">
    <path d="M 0 26  L 0 0  L 90 0  L 90 26  L 0 26  Z " fill-rule="nonzero" fill="rgba(242, 242, 242, 1)" stroke="none" transform="matrix(1 0 0 1 1331 32 )" class="fill" />
    <path d="M 0 26  L 0 0  L 90 0  L 90 26  L 0 26  Z " stroke-width="0" stroke-dasharray="0" stroke="rgba(121, 121, 121, 1)" fill="none" transform="matrix(1 0 0 1 1331 32 )" class="stroke" mask="url(#Clip842)" />
    <path d="M 90 0  L 0 26  M 0 0  L 90 26  " stroke-width="0" stroke-dasharray="0" stroke="rgba(121, 121, 121, 1)" fill="none" transform="matrix(1 0 0 1 1331 32 )" class="stroke" mask="url(#Clip843)" />
  </g>
</svg>