<?xml version="1.0" encoding="utf-8"?>
<svg version="1.1" xmlns:xlink="http://www.w3.org/1999/xlink" width="483px" height="483px" xmlns="http://www.w3.org/2000/svg">
  <defs>
    <pattern id="BGPattern" patternUnits="userSpaceOnUse" alignment="0 0" imageRepeat="None" />
    <mask fill="white" id="Clip1895">
      <path d="M 0 241.5  C 0 106.25999999999999  106.25999999999999 0  241.5 0  C 376.74 0  483 106.25999999999999  483 241.5  C 483 376.74  376.74 483  241.5 483  C 106.25999999999999 483  0 376.74  0 241.5  Z " fill-rule="evenodd" />
    </mask>
  </defs>
  <g transform="matrix(1 0 0 1 -727 -303 )">
    <path d="M 0 241.5  C 0 106.25999999999999  106.25999999999999 0  241.5 0  C 376.74 0  483 106.25999999999999  483 241.5  C 483 376.74  376.74 483  241.5 483  C 106.25999999999999 483  0 376.74  0 241.5  Z " fill-rule="nonzero" fill="rgba(255, 255, 255, 0)" stroke="none" transform="matrix(1 0 0 1 727 303 )" class="fill" />
    <path d="M 0 241.5  C 0 106.25999999999999  106.25999999999999 0  241.5 0  C 376.74 0  483 106.25999999999999  483 241.5  C 483 376.74  376.74 483  241.5 483  C 106.25999999999999 483  0 376.74  0 241.5  Z " stroke-width="8" stroke-dasharray="36,16" stroke="rgba(121, 121, 121, 1)" fill="none" transform="matrix(1 0 0 1 727 303 )" class="stroke" mask="url(#Clip1895)" />
  </g>
</svg>