<?xml version="1.0" encoding="utf-8"?>
<svg version="1.1" xmlns:xlink="http://www.w3.org/1999/xlink" width="21px" height="21px" xmlns="http://www.w3.org/2000/svg">
  <defs>
    <pattern id="BGPattern" patternUnits="userSpaceOnUse" alignment="0 0" imageRepeat="None" />
    <mask fill="white" id="Clip2070">
      <path d="M 20.535304054054052 18.72972972972973  C 21.028378378378378 19.222804054054052  21.028378378378378 20.035135135135132  20.531756756756756 20.531756756756756  C 20.035135135135132 21.028378378378378  19.222804054054052 21.028378378378378  18.72618243243243 20.531756756756756  L 0.46824324324324285 2.2738175675675683  C -0.028378378378378782 1.7771959459459468  -0.028378378378378782 0.9648648648648654  0.46824324324324285 0.46824324324324385  C 0.9648648648648644 -0.028378378378377773  1.7771959459459448 -0.028378378378377773  2.2738175675675665 0.46824324324324385  L 20.535304054054052 18.72972972972973  Z " fill-rule="evenodd" />
    </mask>
  </defs>
  <g transform="matrix(1 0 0 1 -389 -17 )">
    <path d="M 20.535304054054052 18.72972972972973  C 21.028378378378378 19.222804054054052  21.028378378378378 20.035135135135132  20.531756756756756 20.531756756756756  C 20.035135135135132 21.028378378378378  19.222804054054052 21.028378378378378  18.72618243243243 20.531756756756756  L 0.46824324324324285 2.2738175675675683  C -0.028378378378378782 1.7771959459459468  -0.028378378378378782 0.9648648648648654  0.46824324324324285 0.46824324324324385  C 0.9648648648648644 -0.028378378378377773  1.7771959459459448 -0.028378378378377773  2.2738175675675665 0.46824324324324385  L 20.535304054054052 18.72972972972973  Z " fill-rule="nonzero" fill="rgba(0, 0, 0, 1)" stroke="none" transform="matrix(1 0 0 1 389 17 )" class="fill" />
    <path d="M 20.535304054054052 18.72972972972973  C 21.028378378378378 19.222804054054052  21.028378378378378 20.035135135135132  20.531756756756756 20.531756756756756  C 20.035135135135132 21.028378378378378  19.222804054054052 21.028378378378378  18.72618243243243 20.531756756756756  L 0.46824324324324285 2.2738175675675683  C -0.028378378378378782 1.7771959459459468  -0.028378378378378782 0.9648648648648654  0.46824324324324285 0.46824324324324385  C 0.9648648648648644 -0.028378378378377773  1.7771959459459448 -0.028378378378377773  2.2738175675675665 0.46824324324324385  L 20.535304054054052 18.72972972972973  Z " stroke-width="0" stroke-dasharray="0" stroke="rgba(255, 255, 255, 0)" fill="none" transform="matrix(1 0 0 1 389 17 )" class="stroke" mask="url(#Clip2070)" />
  </g>
</svg>