<?xml version="1.0" encoding="utf-8"?>
<svg version="1.1" xmlns:xlink="http://www.w3.org/1999/xlink" width="22px" height="22px" xmlns="http://www.w3.org/2000/svg">
  <defs>
    <pattern id="BGPattern" patternUnits="userSpaceOnUse" alignment="0 0" imageRepeat="None" />
    <mask fill="white" id="Clip446">
      <path d="M 11.787171757085025 6.669211465587068  C 10.875198186234822 6.669211465587068  10.181116890688259 5.933403206477736  10.181116890688259 5.0734173279352035  C 10.181116890688259 4.213294639676121  10.875198186234822 3.498281457489887  11.787171757085025 3.498281457489887  C 12.668226331983805 3.498281457489887  13.383011497975717 4.213294639676121  13.383011497975717 5.0734173279352035  C 13.383011497975717 5.933403206477736  12.668203530364378 6.669211465587068  11.787171757085025 6.669211465587068  Z M 13.30615274270557 17.509445351170545  C 12.837255129973471 17.969140869565194  11.626390068965527 18.82255839464883  9.639877602122025 18.536720267558508  C 8.652425167108749 18.39453110367895  8.439835840848799 17.62717110367895  8.519610058355438 16.77111652173914  C 8.602767957559676 15.883181806020074  9.057234503978789 14.827841070234102  9.344712997347482 14.235044816053486  C 9.892331628647224 13.104759866220714  10.311997793103444 11.335035719063539  9.273431596816986 11.335035719063539  C 9.140818164456244 11.335035719063539  8.923567872679047 11.252415785953167  9.405596859416454 10.98214100334447  C 9.972934960212212 10.663881204013377  10.810788328912462 10.22537632107021  11.63616016976127 10.32925752508362  C 13.020780647214853 10.503609364548472  13.269223554376648 12.09700387959864  12.644161188328916 13.368253645484963  C 11.99619734748011 14.686452441471584  11.437352063660468 16.27506729096988  11.666456445623345 16.813898060200643  C 11.824727596816977 17.185299264214027  12.593226694960215 17.29546702341136  13.092465400530507 17.29546702341136  C 13.377411734748012 17.29546702341136  13.448513867374 17.36989324414716  13.30615274270557 17.509445351170545  Z M 3.2447546902654816 3.208303999999994  C 1.0707030088495606 5.40224457142856  0.06272453097345367 7.92746742857142  0.06272453097345367 10.978553142857125  C 0.06272453097345367 14.040827428571408  1.0707030088495606 16.566176000000016  3.2447546902654816 18.76011657142858  C 5.41932969911504 20.954082285714268  7.922753699115049 21.95967085714286  10.946240566371683 21.95967085714286  C 13.970225840707972 21.95967085714286  16.473201274336297 20.954082285714268  18.647776283185856 18.76011657142858  C 20.822276530973436 16.566176000000016  21.830279929203527 14.040852571428577  21.830279929203527 10.978553142857125  C 21.830279929203527 7.9274422857143  20.822276530973436 5.40224457142856  18.647776283185856 3.208303999999994  C 16.473201274336272 1.0143382857143066  13.970225840707972 0.00880000000000354  10.946240566371683 0.00880000000000354  C 7.922753699115049 0.00880000000000354  5.419304778761057 1.0143382857143066  3.2447546902654816 3.208303999999994  Z " fill-rule="evenodd" />
    </mask>
  </defs>
  <g transform="matrix(1 0 0 1 -19 -25 )">
    <path d="M 11.787171757085025 6.669211465587068  C 10.875198186234822 6.669211465587068  10.181116890688259 5.933403206477736  10.181116890688259 5.0734173279352035  C 10.181116890688259 4.213294639676121  10.875198186234822 3.498281457489887  11.787171757085025 3.498281457489887  C 12.668226331983805 3.498281457489887  13.383011497975717 4.213294639676121  13.383011497975717 5.0734173279352035  C 13.383011497975717 5.933403206477736  12.668203530364378 6.669211465587068  11.787171757085025 6.669211465587068  Z M 13.30615274270557 17.509445351170545  C 12.837255129973471 17.969140869565194  11.626390068965527 18.82255839464883  9.639877602122025 18.536720267558508  C 8.652425167108749 18.39453110367895  8.439835840848799 17.62717110367895  8.519610058355438 16.77111652173914  C 8.602767957559676 15.883181806020074  9.057234503978789 14.827841070234102  9.344712997347482 14.235044816053486  C 9.892331628647224 13.104759866220714  10.311997793103444 11.335035719063539  9.273431596816986 11.335035719063539  C 9.140818164456244 11.335035719063539  8.923567872679047 11.252415785953167  9.405596859416454 10.98214100334447  C 9.972934960212212 10.663881204013377  10.810788328912462 10.22537632107021  11.63616016976127 10.32925752508362  C 13.020780647214853 10.503609364548472  13.269223554376648 12.09700387959864  12.644161188328916 13.368253645484963  C 11.99619734748011 14.686452441471584  11.437352063660468 16.27506729096988  11.666456445623345 16.813898060200643  C 11.824727596816977 17.185299264214027  12.593226694960215 17.29546702341136  13.092465400530507 17.29546702341136  C 13.377411734748012 17.29546702341136  13.448513867374 17.36989324414716  13.30615274270557 17.509445351170545  Z M 3.2447546902654816 3.208303999999994  C 1.0707030088495606 5.40224457142856  0.06272453097345367 7.92746742857142  0.06272453097345367 10.978553142857125  C 0.06272453097345367 14.040827428571408  1.0707030088495606 16.566176000000016  3.2447546902654816 18.76011657142858  C 5.41932969911504 20.954082285714268  7.922753699115049 21.95967085714286  10.946240566371683 21.95967085714286  C 13.970225840707972 21.95967085714286  16.473201274336297 20.954082285714268  18.647776283185856 18.76011657142858  C 20.822276530973436 16.566176000000016  21.830279929203527 14.040852571428577  21.830279929203527 10.978553142857125  C 21.830279929203527 7.9274422857143  20.822276530973436 5.40224457142856  18.647776283185856 3.208303999999994  C 16.473201274336272 1.0143382857143066  13.970225840707972 0.00880000000000354  10.946240566371683 0.00880000000000354  C 7.922753699115049 0.00880000000000354  5.419304778761057 1.0143382857143066  3.2447546902654816 3.208303999999994  Z " fill-rule="nonzero" fill="rgba(127, 127, 127, 1)" stroke="none" transform="matrix(1 0 0 1 19 25 )" class="fill" />
    <path d="M 11.787171757085025 6.669211465587068  C 10.875198186234822 6.669211465587068  10.181116890688259 5.933403206477736  10.181116890688259 5.0734173279352035  C 10.181116890688259 4.213294639676121  10.875198186234822 3.498281457489887  11.787171757085025 3.498281457489887  C 12.668226331983805 3.498281457489887  13.383011497975717 4.213294639676121  13.383011497975717 5.0734173279352035  C 13.383011497975717 5.933403206477736  12.668203530364378 6.669211465587068  11.787171757085025 6.669211465587068  Z " stroke-width="0" stroke-dasharray="0" stroke="rgba(255, 255, 255, 0)" fill="none" transform="matrix(1 0 0 1 19 25 )" class="stroke" mask="url(#Clip446)" />
    <path d="M 13.30615274270557 17.509445351170545  C 12.837255129973471 17.969140869565194  11.626390068965527 18.82255839464883  9.639877602122025 18.536720267558508  C 8.652425167108749 18.39453110367895  8.439835840848799 17.62717110367895  8.519610058355438 16.77111652173914  C 8.602767957559676 15.883181806020074  9.057234503978789 14.827841070234102  9.344712997347482 14.235044816053486  C 9.892331628647224 13.104759866220714  10.311997793103444 11.335035719063539  9.273431596816986 11.335035719063539  C 9.140818164456244 11.335035719063539  8.923567872679047 11.252415785953167  9.405596859416454 10.98214100334447  C 9.972934960212212 10.663881204013377  10.810788328912462 10.22537632107021  11.63616016976127 10.32925752508362  C 13.020780647214853 10.503609364548472  13.269223554376648 12.09700387959864  12.644161188328916 13.368253645484963  C 11.99619734748011 14.686452441471584  11.437352063660468 16.27506729096988  11.666456445623345 16.813898060200643  C 11.824727596816977 17.185299264214027  12.593226694960215 17.29546702341136  13.092465400530507 17.29546702341136  C 13.377411734748012 17.29546702341136  13.448513867374 17.36989324414716  13.30615274270557 17.509445351170545  Z " stroke-width="0" stroke-dasharray="0" stroke="rgba(255, 255, 255, 0)" fill="none" transform="matrix(1 0 0 1 19 25 )" class="stroke" mask="url(#Clip446)" />
    <path d="M 3.2447546902654816 3.208303999999994  C 1.0707030088495606 5.40224457142856  0.06272453097345367 7.92746742857142  0.06272453097345367 10.978553142857125  C 0.06272453097345367 14.040827428571408  1.0707030088495606 16.566176000000016  3.2447546902654816 18.76011657142858  C 5.41932969911504 20.954082285714268  7.922753699115049 21.95967085714286  10.946240566371683 21.95967085714286  C 13.970225840707972 21.95967085714286  16.473201274336297 20.954082285714268  18.647776283185856 18.76011657142858  C 20.822276530973436 16.566176000000016  21.830279929203527 14.040852571428577  21.830279929203527 10.978553142857125  C 21.830279929203527 7.9274422857143  20.822276530973436 5.40224457142856  18.647776283185856 3.208303999999994  C 16.473201274336272 1.0143382857143066  13.970225840707972 0.00880000000000354  10.946240566371683 0.00880000000000354  C 7.922753699115049 0.00880000000000354  5.419304778761057 1.0143382857143066  3.2447546902654816 3.208303999999994  Z " stroke-width="0" stroke-dasharray="0" stroke="rgba(255, 255, 255, 0)" fill="none" transform="matrix(1 0 0 1 19 25 )" class="stroke" mask="url(#Clip446)" />
  </g>
</svg>