<?xml version="1.0" encoding="utf-8"?>
<svg version="1.1" xmlns:xlink="http://www.w3.org/1999/xlink" width="446px" height="446px" xmlns="http://www.w3.org/2000/svg">
  <defs>
    <pattern id="BGPattern" patternUnits="userSpaceOnUse" alignment="0 0" imageRepeat="None" />
    <mask fill="white" id="Clip2458">
      <path d="M 0 223  C 0 98.11999999999999  98.11999999999999 0  223 0  C 347.88 0  446 98.11999999999999  446 223  C 446 347.88  347.88 446  223 446  C 98.11999999999999 446  0 347.88  0 223  Z " fill-rule="evenodd" />
    </mask>
  </defs>
  <g transform="matrix(1 0 0 1 -663 -447 )">
    <path d="M 0 223  C 0 98.11999999999999  98.11999999999999 0  223 0  C 347.88 0  446 98.11999999999999  446 223  C 446 347.88  347.88 446  223 446  C 98.11999999999999 446  0 347.88  0 223  Z " fill-rule="nonzero" fill="rgba(255, 255, 255, 0)" stroke="none" transform="matrix(1 0 0 1 663 447 )" class="fill" />
    <path d="M 0 223  C 0 98.11999999999999  98.11999999999999 0  223 0  C 347.88 0  446 98.11999999999999  446 223  C 446 347.88  347.88 446  223 446  C 98.11999999999999 446  0 347.88  0 223  Z " stroke-width="8" stroke-dasharray="36,16" stroke="rgba(121, 121, 121, 1)" fill="none" transform="matrix(1 0 0 1 663 447 )" class="stroke" mask="url(#Clip2458)" />
  </g>
</svg>