<?xml version="1.0" encoding="utf-8"?>
<svg version="1.1" xmlns:xlink="http://www.w3.org/1999/xlink" width="97px" height="92px" xmlns="http://www.w3.org/2000/svg">
  <defs>
    <pattern id="BGPattern" patternUnits="userSpaceOnUse" alignment="0 0" imageRepeat="None" />
    <mask fill="white" id="Clip347">
      <path d="M 0 92  L 0 0  L 97 0  L 97 92  L 0 92  Z " fill-rule="evenodd" />
    </mask>
    <mask fill="white" id="Clip348">
      <path d="M 23.5 37  L 75.5 37  L 75.5 56  L 23.5 56  Z M 0 0  L 97 0  L 97 92  L 0 92  Z " fill-rule="evenodd" />
    </mask>
  </defs>
  <g transform="matrix(1 0 0 1 -542 -605 )">
    <path d="M 0 92  L 0 0  L 97 0  L 97 92  L 0 92  Z " fill-rule="nonzero" fill="rgba(242, 242, 242, 1)" stroke="none" transform="matrix(1 0 0 1 542 605 )" class="fill" />
    <path d="M 0 92  L 0 0  L 97 0  L 97 92  L 0 92  Z " stroke-width="2" stroke-dasharray="0" stroke="rgba(121, 121, 121, 1)" fill="none" transform="matrix(1 0 0 1 542 605 )" class="stroke" mask="url(#Clip347)" />
    <path d="M 96.61750398237108 0.36277972806041775  L 0.3824960176289187 91.63722027193958  M 0.3824960176289187 0.36277972806041775  L 96.61750398237108 91.63722027193958  " stroke-width="1" stroke-dasharray="0" stroke="rgba(121, 121, 121, 1)" fill="none" transform="matrix(1 0 0 1 542 605 )" class="stroke" mask="url(#Clip348)" />
  </g>
</svg>