<?xml version="1.0" encoding="utf-8"?>
<svg version="1.1" xmlns:xlink="http://www.w3.org/1999/xlink" width="97px" height="40px" xmlns="http://www.w3.org/2000/svg">
  <defs>
    <pattern id="BGPattern" patternUnits="userSpaceOnUse" alignment="0 0" imageRepeat="None" />
    <mask fill="white" id="Clip736">
      <path d="M 0 40  L 0 0  L 97 0  L 97 40  L 0 40  Z " fill-rule="evenodd" />
    </mask>
    <mask fill="white" id="Clip737">
      <path d="M 23.5 11  L 75.5 11  L 75.5 30  L 23.5 30  Z M 0 0  L 97 0  L 97 40  L 0 40  Z " fill-rule="evenodd" />
    </mask>
  </defs>
  <g transform="matrix(1 0 0 1 -21 -657 )">
    <path d="M 0 40  L 0 0  L 97 0  L 97 40  L 0 40  Z " fill-rule="nonzero" fill="rgba(242, 242, 242, 1)" stroke="none" transform="matrix(1 0 0 1 21 657 )" class="fill" />
    <path d="M 0 40  L 0 0  L 97 0  L 97 40  L 0 40  Z " stroke-width="2" stroke-dasharray="0" stroke="rgba(121, 121, 121, 1)" fill="none" transform="matrix(1 0 0 1 21 657 )" class="stroke" mask="url(#Clip736)" />
    <path d="M 95.87906728184952 0.4622402961445272  L 1.1209327181504787 39.53775970385547  M 1.1209327181504787 0.4622402961445272  L 95.87906728184952 39.53775970385547  " stroke-width="1" stroke-dasharray="0" stroke="rgba(121, 121, 121, 1)" fill="none" transform="matrix(1 0 0 1 21 657 )" class="stroke" mask="url(#Clip737)" />
  </g>
</svg>