<?xml version="1.0" encoding="utf-8"?>
<svg version="1.1" xmlns:xlink="http://www.w3.org/1999/xlink" width="70px" height="76px" xmlns="http://www.w3.org/2000/svg">
  <defs>
    <pattern id="BGPattern" patternUnits="userSpaceOnUse" alignment="0 0" imageRepeat="None" />
    <mask fill="white" id="Clip429">
      <path d="M 54.99896070312501 11.289781000000001  C 57.341692343750005 12.974987266666668  59.42148226562501 14.885082045833334  61.23865015625 17.017959187500004  C 63.060215156249996 19.1531046125  64.61899828125 21.45821271666667  65.91947656250001 23.93312136666667  C 67.220034765625 26.41037936666667  68.207845078125 29.029974995833335  68.882987265625 31.79644497916667  C 69.558129453125 34.5629149625  69.8979790625 37.366245183333334  69.8979790625 40.213159741666665  C 69.8979790625 45.112587775  68.97356578125 49.7088699375  67.12929625000001 54.002168125  C 65.28054968750001 58.2954663125  62.788239453125016 62.0377227  59.63901468750001 65.22440048333333  C 56.49426679687501 68.41107834583333  52.80572765625001 70.93880667916666  48.56452320312501 72.81001582083333  C 44.332272656250005 74.68114397500001  39.791911015625004 75.61553341666666  34.95694914062501 75.61553341666666  C 30.176350390625004 75.61553341666666  25.667727265625004 74.68114397500001  21.426362890625008 72.81001582083333  C 17.194112343750007 70.93880659999999  13.487505468750006 68.41107826666666  10.315576015625005 65.22440048333333  C 7.143646562500006 62.0354543375  4.651416328125005 58.2954663125  2.8298513281250046 54.002168125  C 1.0082064062500051 49.7088699375  0.10194085937500486 45.112587775  0.10194085937500486 40.213159741666665  C 0.10194085937500486 37.42133315  0.4236427343750049 34.68005787916666  1.0716833593750053 31.993951562499998  C 1.7242009375000056 29.307764258333332  2.648614218750005 26.752491941666666  3.844843125000006 24.327972558333332  C 5.041072109375007 21.905883512499997  6.518310546875005 19.6398231  8.285512343750005 17.53222165833333  C 10.052714218750006 15.424539229166664  12.028414687500003 13.528216362499998  14.212533828125004 11.843010174999998  C 15.358956562500005 11.000407041666666  16.595957890625005 10.683570166666666  17.919140781250004 10.894767754166665  C 19.242243750000007 11.105965341666664  20.320712500000003 11.762646508333333  21.154467265625 12.869266912499999  C 21.988221953125002 13.97580625  22.296413046875003 15.213341641666664  22.092471328125004 16.5839792375  C 21.884052656250006 17.9546169125  21.236091953125005 19.061237237500002  20.139475468750003 19.90375938333333  C 16.867853593750006 22.32592941666667  14.357475703125004 25.303677975000003  12.617455390625002 28.832468412500003  C 10.877435156250003 32.363527133333335  10.002908046875003 36.15625385416667  10.002908046875003 40.21307875416667  C 10.002908046875003 43.68904950833334  10.650868750000003 46.96978196250001  11.955903906250002 50.050901525  C 13.251825234375003 53.134289370833336  15.032697812500002 55.820476675  17.293804843750003 58.11173172083333  C 19.559468750000004 60.40298676666667  22.205754531250005 62.221376304166675  25.250810000000005 63.56446999583335  C 28.291308515625005 64.90756360833333  31.526714921875005 65.57793577916668  34.956949218750005 65.57793577916668  C 38.391660468750004 65.57793577916668  41.62706687500001 64.90756360833335  44.66756539062501 63.56446999583335  C 47.708063906250004 62.221376383333336  50.358906640625 60.40306783333334  52.624570546875 58.11173172083333  C 54.8856775 55.820476675  56.675583984375 53.134289370833336  58.00324382812501 50.050901525  C 59.33090367187501 46.969863029166675  59.99245515625001 43.689130575000014  59.99245515625001 40.21307875416667  C 59.99245515625001 36.10343417083334  59.05453109375 32.21884015416667  57.183000000000014 28.556947512500006  C 55.311628828125016 24.89497380416667  52.68788765625001 21.878258620833336  49.307539531250015 19.50890819166667  C 48.16567375000002 18.719124741666676  47.47694070312502 17.637780037500004  47.24126046875001 16.269491712500002  C 47.00566023437502 14.898854037500003  47.28203281250002 13.633774741666668  48.06142437500002 12.474334733333336  C 48.840815937500025 11.367795395833337  49.90569398437502 10.697342237500003  51.256058437500016 10.460868950000002  C 52.610979765625 10.2221273  53.857094921874996 10.49999755  54.99896070312501 11.289781000000001  Z M 34.95694921875 40.44963302916666  C 33.606584765625 40.44963302916666  32.451048203125 39.9629144625  31.485942578125005 38.98712805833333  C 30.52523390625 38.01369100416666  30.044999531250003 36.840478925  30 35.46984132916667  L 30 5.442110545833333  C 30.044999453124998 4.071472870833333  30.525313828125 2.886838229166666  31.485942499999997 1.885857191666666  C 32.451048125 0.8849571416666663  33.6065846875 0.38438559583333304  34.956949140625 0.38438559583333304  C 36.361596796875006 0.38438559583333304  37.544314921875 0.8849571416666663  38.50494359374999 1.8858571916666664  C 39.470129218749996 2.886838229166667  39.95044351562499 4.0714729499999995  40 5.442110545833333  L 40 35.46984132916667  C 39.95044351562499 36.84047900416667  39.47012914062499 38.013691004166674  38.50494359374999 38.98712805833334  C 37.544314921875 39.96299545  36.361596875000004 40.44963302916666  34.95694921875 40.44963302916666  Z " fill-rule="evenodd" />
    </mask>
  </defs>
  <g transform="matrix(1 0 0 1 -256 -77 )">
    <path d="M 54.99896070312501 11.289781000000001  C 57.341692343750005 12.974987266666668  59.42148226562501 14.885082045833334  61.23865015625 17.017959187500004  C 63.060215156249996 19.1531046125  64.61899828125 21.45821271666667  65.91947656250001 23.93312136666667  C 67.220034765625 26.41037936666667  68.207845078125 29.029974995833335  68.882987265625 31.79644497916667  C 69.558129453125 34.5629149625  69.8979790625 37.366245183333334  69.8979790625 40.213159741666665  C 69.8979790625 45.112587775  68.97356578125 49.7088699375  67.12929625000001 54.002168125  C 65.28054968750001 58.2954663125  62.788239453125016 62.0377227  59.63901468750001 65.22440048333333  C 56.49426679687501 68.41107834583333  52.80572765625001 70.93880667916666  48.56452320312501 72.81001582083333  C 44.332272656250005 74.68114397500001  39.791911015625004 75.61553341666666  34.95694914062501 75.61553341666666  C 30.176350390625004 75.61553341666666  25.667727265625004 74.68114397500001  21.426362890625008 72.81001582083333  C 17.194112343750007 70.93880659999999  13.487505468750006 68.41107826666666  10.315576015625005 65.22440048333333  C 7.143646562500006 62.0354543375  4.651416328125005 58.2954663125  2.8298513281250046 54.002168125  C 1.0082064062500051 49.7088699375  0.10194085937500486 45.112587775  0.10194085937500486 40.213159741666665  C 0.10194085937500486 37.42133315  0.4236427343750049 34.68005787916666  1.0716833593750053 31.993951562499998  C 1.7242009375000056 29.307764258333332  2.648614218750005 26.752491941666666  3.844843125000006 24.327972558333332  C 5.041072109375007 21.905883512499997  6.518310546875005 19.6398231  8.285512343750005 17.53222165833333  C 10.052714218750006 15.424539229166664  12.028414687500003 13.528216362499998  14.212533828125004 11.843010174999998  C 15.358956562500005 11.000407041666666  16.595957890625005 10.683570166666666  17.919140781250004 10.894767754166665  C 19.242243750000007 11.105965341666664  20.320712500000003 11.762646508333333  21.154467265625 12.869266912499999  C 21.988221953125002 13.97580625  22.296413046875003 15.213341641666664  22.092471328125004 16.5839792375  C 21.884052656250006 17.9546169125  21.236091953125005 19.061237237500002  20.139475468750003 19.90375938333333  C 16.867853593750006 22.32592941666667  14.357475703125004 25.303677975000003  12.617455390625002 28.832468412500003  C 10.877435156250003 32.363527133333335  10.002908046875003 36.15625385416667  10.002908046875003 40.21307875416667  C 10.002908046875003 43.68904950833334  10.650868750000003 46.96978196250001  11.955903906250002 50.050901525  C 13.251825234375003 53.134289370833336  15.032697812500002 55.820476675  17.293804843750003 58.11173172083333  C 19.559468750000004 60.40298676666667  22.205754531250005 62.221376304166675  25.250810000000005 63.56446999583335  C 28.291308515625005 64.90756360833333  31.526714921875005 65.57793577916668  34.956949218750005 65.57793577916668  C 38.391660468750004 65.57793577916668  41.62706687500001 64.90756360833335  44.66756539062501 63.56446999583335  C 47.708063906250004 62.221376383333336  50.358906640625 60.40306783333334  52.624570546875 58.11173172083333  C 54.8856775 55.820476675  56.675583984375 53.134289370833336  58.00324382812501 50.050901525  C 59.33090367187501 46.969863029166675  59.99245515625001 43.689130575000014  59.99245515625001 40.21307875416667  C 59.99245515625001 36.10343417083334  59.05453109375 32.21884015416667  57.183000000000014 28.556947512500006  C 55.311628828125016 24.89497380416667  52.68788765625001 21.878258620833336  49.307539531250015 19.50890819166667  C 48.16567375000002 18.719124741666676  47.47694070312502 17.637780037500004  47.24126046875001 16.269491712500002  C 47.00566023437502 14.898854037500003  47.28203281250002 13.633774741666668  48.06142437500002 12.474334733333336  C 48.840815937500025 11.367795395833337  49.90569398437502 10.697342237500003  51.256058437500016 10.460868950000002  C 52.610979765625 10.2221273  53.857094921874996 10.49999755  54.99896070312501 11.289781000000001  Z M 34.95694921875 40.44963302916666  C 33.606584765625 40.44963302916666  32.451048203125 39.9629144625  31.485942578125005 38.98712805833333  C 30.52523390625 38.01369100416666  30.044999531250003 36.840478925  30 35.46984132916667  L 30 5.442110545833333  C 30.044999453124998 4.071472870833333  30.525313828125 2.886838229166666  31.485942499999997 1.885857191666666  C 32.451048125 0.8849571416666663  33.6065846875 0.38438559583333304  34.956949140625 0.38438559583333304  C 36.361596796875006 0.38438559583333304  37.544314921875 0.8849571416666663  38.50494359374999 1.8858571916666664  C 39.470129218749996 2.886838229166667  39.95044351562499 4.0714729499999995  40 5.442110545833333  L 40 35.46984132916667  C 39.95044351562499 36.84047900416667  39.47012914062499 38.013691004166674  38.50494359374999 38.98712805833334  C 37.544314921875 39.96299545  36.361596875000004 40.44963302916666  34.95694921875 40.44963302916666  Z " fill-rule="nonzero" fill="rgba(51, 51, 51, 1)" stroke="none" transform="matrix(1 0 0 1 256 77 )" class="fill" />
    <path d="M 54.99896070312501 11.289781000000001  C 57.341692343750005 12.974987266666668  59.42148226562501 14.885082045833334  61.23865015625 17.017959187500004  C 63.060215156249996 19.1531046125  64.61899828125 21.45821271666667  65.91947656250001 23.93312136666667  C 67.220034765625 26.41037936666667  68.207845078125 29.029974995833335  68.882987265625 31.79644497916667  C 69.558129453125 34.5629149625  69.8979790625 37.366245183333334  69.8979790625 40.213159741666665  C 69.8979790625 45.112587775  68.97356578125 49.7088699375  67.12929625000001 54.002168125  C 65.28054968750001 58.2954663125  62.788239453125016 62.0377227  59.63901468750001 65.22440048333333  C 56.49426679687501 68.41107834583333  52.80572765625001 70.93880667916666  48.56452320312501 72.81001582083333  C 44.332272656250005 74.68114397500001  39.791911015625004 75.61553341666666  34.95694914062501 75.61553341666666  C 30.176350390625004 75.61553341666666  25.667727265625004 74.68114397500001  21.426362890625008 72.81001582083333  C 17.194112343750007 70.93880659999999  13.487505468750006 68.41107826666666  10.315576015625005 65.22440048333333  C 7.143646562500006 62.0354543375  4.651416328125005 58.2954663125  2.8298513281250046 54.002168125  C 1.0082064062500051 49.7088699375  0.10194085937500486 45.112587775  0.10194085937500486 40.213159741666665  C 0.10194085937500486 37.42133315  0.4236427343750049 34.68005787916666  1.0716833593750053 31.993951562499998  C 1.7242009375000056 29.307764258333332  2.648614218750005 26.752491941666666  3.844843125000006 24.327972558333332  C 5.041072109375007 21.905883512499997  6.518310546875005 19.6398231  8.285512343750005 17.53222165833333  C 10.052714218750006 15.424539229166664  12.028414687500003 13.528216362499998  14.212533828125004 11.843010174999998  C 15.358956562500005 11.000407041666666  16.595957890625005 10.683570166666666  17.919140781250004 10.894767754166665  C 19.242243750000007 11.105965341666664  20.320712500000003 11.762646508333333  21.154467265625 12.869266912499999  C 21.988221953125002 13.97580625  22.296413046875003 15.213341641666664  22.092471328125004 16.5839792375  C 21.884052656250006 17.9546169125  21.236091953125005 19.061237237500002  20.139475468750003 19.90375938333333  C 16.867853593750006 22.32592941666667  14.357475703125004 25.303677975000003  12.617455390625002 28.832468412500003  C 10.877435156250003 32.363527133333335  10.002908046875003 36.15625385416667  10.002908046875003 40.21307875416667  C 10.002908046875003 43.68904950833334  10.650868750000003 46.96978196250001  11.955903906250002 50.050901525  C 13.251825234375003 53.134289370833336  15.032697812500002 55.820476675  17.293804843750003 58.11173172083333  C 19.559468750000004 60.40298676666667  22.205754531250005 62.221376304166675  25.250810000000005 63.56446999583335  C 28.291308515625005 64.90756360833333  31.526714921875005 65.57793577916668  34.956949218750005 65.57793577916668  C 38.391660468750004 65.57793577916668  41.62706687500001 64.90756360833335  44.66756539062501 63.56446999583335  C 47.708063906250004 62.221376383333336  50.358906640625 60.40306783333334  52.624570546875 58.11173172083333  C 54.8856775 55.820476675  56.675583984375 53.134289370833336  58.00324382812501 50.050901525  C 59.33090367187501 46.969863029166675  59.99245515625001 43.689130575000014  59.99245515625001 40.21307875416667  C 59.99245515625001 36.10343417083334  59.05453109375 32.21884015416667  57.183000000000014 28.556947512500006  C 55.311628828125016 24.89497380416667  52.68788765625001 21.878258620833336  49.307539531250015 19.50890819166667  C 48.16567375000002 18.719124741666676  47.47694070312502 17.637780037500004  47.24126046875001 16.269491712500002  C 47.00566023437502 14.898854037500003  47.28203281250002 13.633774741666668  48.06142437500002 12.474334733333336  C 48.840815937500025 11.367795395833337  49.90569398437502 10.697342237500003  51.256058437500016 10.460868950000002  C 52.610979765625 10.2221273  53.857094921874996 10.49999755  54.99896070312501 11.289781000000001  Z " stroke-width="0" stroke-dasharray="0" stroke="rgba(255, 255, 255, 0)" fill="none" transform="matrix(1 0 0 1 256 77 )" class="stroke" mask="url(#Clip429)" />
    <path d="M 34.95694921875 40.44963302916666  C 33.606584765625 40.44963302916666  32.451048203125 39.9629144625  31.485942578125005 38.98712805833333  C 30.52523390625 38.01369100416666  30.044999531250003 36.840478925  30 35.46984132916667  L 30 5.442110545833333  C 30.044999453124998 4.071472870833333  30.525313828125 2.886838229166666  31.485942499999997 1.885857191666666  C 32.451048125 0.8849571416666663  33.6065846875 0.38438559583333304  34.956949140625 0.38438559583333304  C 36.361596796875006 0.38438559583333304  37.544314921875 0.8849571416666663  38.50494359374999 1.8858571916666664  C 39.470129218749996 2.886838229166667  39.95044351562499 4.0714729499999995  40 5.442110545833333  L 40 35.46984132916667  C 39.95044351562499 36.84047900416667  39.47012914062499 38.013691004166674  38.50494359374999 38.98712805833334  C 37.544314921875 39.96299545  36.361596875000004 40.44963302916666  34.95694921875 40.44963302916666  Z " stroke-width="0" stroke-dasharray="0" stroke="rgba(255, 255, 255, 0)" fill="none" transform="matrix(1 0 0 1 256 77 )" class="stroke" mask="url(#Clip429)" />
  </g>
</svg>