<?xml version="1.0" encoding="utf-8"?>
<svg version="1.1" xmlns:xlink="http://www.w3.org/1999/xlink" width="81px" height="96px" xmlns="http://www.w3.org/2000/svg">
  <defs>
    <pattern id="BGPattern" patternUnits="userSpaceOnUse" alignment="0 0" imageRepeat="None" />
    <mask fill="white" id="Clip459">
      <path d="M 0 96  L 0 0  L 81 0  L 81 96  L 0 96  Z " fill-rule="evenodd" />
    </mask>
    <mask fill="white" id="Clip460">
      <path d="M 17.5 29  L 65.5 29  L 65.5 69  L 17.5 69  Z M 0 0  L 81 0  L 81 96  L 0 96  Z " fill-rule="evenodd" />
    </mask>
  </defs>
  <g transform="matrix(1 0 0 1 -569 -957 )">
    <path d="M 0 96  L 0 0  L 81 0  L 81 96  L 0 96  Z " fill-rule="nonzero" fill="rgba(85, 85, 85, 1)" stroke="none" transform="matrix(1 0 0 1 569 957 )" class="fill" />
    <path d="M 0 96  L 0 0  L 81 0  L 81 96  L 0 96  Z " stroke-width="2" stroke-dasharray="0" stroke="rgba(255, 255, 255, 1)" fill="none" transform="matrix(1 0 0 1 569 957 )" class="stroke" mask="url(#Clip459)" />
    <path d="M 80.61785425824606 0.45291347170837976  L 0.38214574175394544 95.54708652829162  M 0.38214574175394544 0.45291347170837976  L 80.61785425824606 95.54708652829162  " stroke-width="1" stroke-dasharray="0" stroke="rgba(255, 255, 255, 1)" fill="none" transform="matrix(1 0 0 1 569 957 )" class="stroke" mask="url(#Clip460)" />
  </g>
</svg>