<?xml version="1.0" encoding="utf-8"?>
<svg version="1.1" xmlns:xlink="http://www.w3.org/1999/xlink" width="1145px" height="719px" xmlns="http://www.w3.org/2000/svg">
  <g transform="matrix(1 0 0 1 -20 -16 )">
    <path d="M 20 16  L 1165 16  L 1165 735  L 20 735  L 20 16  " fill-rule="nonzero" fill="rgba(204, 204, 204, 1)" stroke="none" class="fill" />
    <path d="M 70 66  L 1115 66  L 1115 685  L 70 685  L 70 66  " fill-rule="nonzero" fill="rgba(255, 255, 255, 1)" stroke="none" class="fill" />
    <path d="M 669.325 231.7  C 639.127 231.7  615.4 207.97299999999998  615.4 177.77499999999998  C 615.4 147.577  639.127 123.85  669.325 123.85  C 699.523 123.85  723.25 147.577  723.25 177.77499999999998  C 723.25 207.97299999999998  699.523 231.7  669.325 231.7  " fill-rule="nonzero" fill="rgba(204, 204, 204, 1)" stroke="none" class="fill" />
    <path d="M 88 667  L 88 346.34999999999997  L 340.25 200.59999999999997  L 693.4 447.3439301310044  L 895.2 288.05  L 1097 447.3439301310044  L 1097 667  L 88 667  " fill-rule="nonzero" fill="rgba(22, 155, 213, 1)" stroke="none" class="fill" />
  </g>
</svg>