<?xml version="1.0" encoding="utf-8"?>
<svg version="1.1" xmlns:xlink="http://www.w3.org/1999/xlink" width="21px" height="21px" xmlns="http://www.w3.org/2000/svg">
  <defs>
    <pattern id="BGPattern" patternUnits="userSpaceOnUse" alignment="0 0" imageRepeat="None" />
    <mask fill="white" id="Clip338">
      <path d="M 18.72972972972973 0.4646959459459457  C 19.222804054054052 -0.028378378378378782  20.035135135135132 -0.028378378378378782  20.531756756756756 0.46824324324324285  C 21.028378378378378 0.9648648648648644  21.028378378378378 1.7771959459459448  20.531756756756756 2.2738175675675665  L 2.2738175675675683 20.531756756756756  C 1.7771959459459468 21.028378378378378  0.9648648648648654 21.028378378378378  0.46824324324324385 20.531756756756756  C -0.028378378378377773 20.035135135135132  -0.028378378378377773 19.222804054054052  0.46824324324324385 18.72618243243243  L 18.72972972972973 0.4646959459459457  Z " fill-rule="evenodd" />
    </mask>
  </defs>
  <g transform="matrix(1 0 0 1 -867 -17 )">
    <path d="M 18.72972972972973 0.4646959459459457  C 19.222804054054052 -0.028378378378378782  20.035135135135132 -0.028378378378378782  20.531756756756756 0.46824324324324285  C 21.028378378378378 0.9648648648648644  21.028378378378378 1.7771959459459448  20.531756756756756 2.2738175675675665  L 2.2738175675675683 20.531756756756756  C 1.7771959459459468 21.028378378378378  0.9648648648648654 21.028378378378378  0.46824324324324385 20.531756756756756  C -0.028378378378377773 20.035135135135132  -0.028378378378377773 19.222804054054052  0.46824324324324385 18.72618243243243  L 18.72972972972973 0.4646959459459457  Z " fill-rule="nonzero" fill="rgba(170, 170, 170, 1)" stroke="none" transform="matrix(1 0 0 1 867 17 )" class="fill" />
    <path d="M 18.72972972972973 0.4646959459459457  C 19.222804054054052 -0.028378378378378782  20.035135135135132 -0.028378378378378782  20.531756756756756 0.46824324324324285  C 21.028378378378378 0.9648648648648644  21.028378378378378 1.7771959459459448  20.531756756756756 2.2738175675675665  L 2.2738175675675683 20.531756756756756  C 1.7771959459459468 21.028378378378378  0.9648648648648654 21.028378378378378  0.46824324324324385 20.531756756756756  C -0.028378378378377773 20.035135135135132  -0.028378378378377773 19.222804054054052  0.46824324324324385 18.72618243243243  L 18.72972972972973 0.4646959459459457  Z " stroke-width="0" stroke-dasharray="0" stroke="rgba(255, 255, 255, 0)" fill="none" transform="matrix(1 0 0 1 867 17 )" class="stroke" mask="url(#Clip338)" />
  </g>
</svg>