<?xml version="1.0" encoding="utf-8"?>
<svg version="1.1" xmlns:xlink="http://www.w3.org/1999/xlink" width="79px" height="67px" xmlns="http://www.w3.org/2000/svg">
  <defs>
    <pattern id="BGPattern" patternUnits="userSpaceOnUse" alignment="0 0" imageRepeat="None" />
    <mask fill="white" id="Clip2512">
      <path d="M 0 67  L 0 0  L 79 0  L 79 67  L 0 67  Z " fill-rule="evenodd" />
    </mask>
    <mask fill="white" id="Clip2513">
      <path d="M 21 17  L 60 17  L 60 51  L 21 51  Z M 0 0  L 79 0  L 79 67  L 0 67  Z " fill-rule="evenodd" />
    </mask>
  </defs>
  <g transform="matrix(1 0 0 1 -6 -202 )">
    <path d="M 0 67  L 0 0  L 79 0  L 79 67  L 0 67  Z " fill-rule="nonzero" fill="rgba(242, 242, 242, 1)" stroke="none" transform="matrix(1 0 0 1 6 202 )" class="fill" />
    <path d="M 0 67  L 0 0  L 79 0  L 79 67  L 0 67  Z " stroke-width="2" stroke-dasharray="0" stroke="rgba(121, 121, 121, 1)" fill="none" transform="matrix(1 0 0 1 6 202 )" class="stroke" mask="url(#Clip2512)" />
    <path d="M 78.55037596033632 0.3813267171831151  L 0.4496240396636731 66.61867328281689  M 0.4496240396636731 0.3813267171831151  L 78.55037596033632 66.61867328281689  " stroke-width="1" stroke-dasharray="0" stroke="rgba(121, 121, 121, 1)" fill="none" transform="matrix(1 0 0 1 6 202 )" class="stroke" mask="url(#Clip2513)" />
  </g>
</svg>