<?xml version="1.0" encoding="utf-8"?>
<svg version="1.1" xmlns:xlink="http://www.w3.org/1999/xlink" width="55px" height="18px" xmlns="http://www.w3.org/2000/svg">
  <defs>
    <pattern id="BGPattern" patternUnits="userSpaceOnUse" alignment="0 0" imageRepeat="None" />
    <mask fill="white" id="Clip255">
      <path d="M 0 18  L 0 0  L 55 0  L 55 18  L 0 18  Z " fill-rule="evenodd" />
    </mask>
    <mask fill="white" id="Clip256">
      <path d="M 15.5 1  L 41.5 1  L 41.5 20  L 15.5 20  Z M 0 0  L 55 0  L 55 18  L 0 18  Z " fill-rule="evenodd" />
    </mask>
  </defs>
  <g transform="matrix(1 0 0 1 -99 -155 )">
    <path d="M 0 18  L 0 0  L 55 0  L 55 18  L 0 18  Z " fill-rule="nonzero" fill="rgba(242, 242, 242, 1)" stroke="none" transform="matrix(1 0 0 1 99 155 )" class="fill" />
    <path d="M 0 18  L 0 0  L 55 0  L 55 18  L 0 18  Z " stroke-width="2" stroke-dasharray="0" stroke="rgba(121, 121, 121, 1)" fill="none" transform="matrix(1 0 0 1 99 155 )" class="stroke" mask="url(#Clip255)" />
    <path d="M 53.548004386181724 0.4751985645223444  L 1.4519956138182746 17.524801435477656  M 1.4519956138182746 0.4751985645223444  L 53.548004386181724 17.524801435477656  " stroke-width="1" stroke-dasharray="0" stroke="rgba(121, 121, 121, 1)" fill="none" transform="matrix(1 0 0 1 99 155 )" class="stroke" mask="url(#Clip256)" />
  </g>
</svg>