<?xml version="1.0" encoding="utf-8"?>
<svg version="1.1" xmlns:xlink="http://www.w3.org/1999/xlink" width="31px" height="17px" xmlns="http://www.w3.org/2000/svg">
  <defs>
    <pattern id="BGPattern" patternUnits="userSpaceOnUse" alignment="0 0" imageRepeat="None" />
    <mask fill="white" id="Clip887">
      <path d="M 30.4248046875 0.5607638888888897  C 30.808268229166668 0.9346064814814797  31 1.3773148148148104  31 1.8888888888888897  C 31 2.4004629629629615  30.808268229166668 2.843171296296294  30.4248046875 3.2170138888888897  L 16.8623046875 16.43923611111111  C 16.478841145833336 16.813078703703706  16.024739583333336 17  15.5 17  C 14.97526041666667 17  14.52115885416667 16.813078703703706  14.1376953125 16.43923611111111  L 0.5751953125 3.2170138888888897  C 0.19173177083333331 2.843171296296294  0 2.4004629629629615  0 1.8888888888888897  C 0 1.3773148148148104  0.19173177083333331 0.9346064814814797  0.5751953125 0.5607638888888897  C 0.9586588541666667 0.18692129629629406  1.4127604166666667 0  1.9375 0  L 29.0625 0  C 29.587239583333336 0  30.041341145833336 0.18692129629629406  30.4248046875 0.5607638888888897  Z " fill-rule="evenodd" />
    </mask>
  </defs>
  <g transform="matrix(1 0 0 1 -565 -262 )">
    <path d="M 30.4248046875 0.5607638888888897  C 30.808268229166668 0.9346064814814797  31 1.3773148148148104  31 1.8888888888888897  C 31 2.4004629629629615  30.808268229166668 2.843171296296294  30.4248046875 3.2170138888888897  L 16.8623046875 16.43923611111111  C 16.478841145833336 16.813078703703706  16.024739583333336 17  15.5 17  C 14.97526041666667 17  14.52115885416667 16.813078703703706  14.1376953125 16.43923611111111  L 0.5751953125 3.2170138888888897  C 0.19173177083333331 2.843171296296294  0 2.4004629629629615  0 1.8888888888888897  C 0 1.3773148148148104  0.19173177083333331 0.9346064814814797  0.5751953125 0.5607638888888897  C 0.9586588541666667 0.18692129629629406  1.4127604166666667 0  1.9375 0  L 29.0625 0  C 29.587239583333336 0  30.041341145833336 0.18692129629629406  30.4248046875 0.5607638888888897  Z " fill-rule="nonzero" fill="rgba(0, 0, 0, 1)" stroke="none" transform="matrix(1 0 0 1 565 262 )" class="fill" />
    <path d="M 30.4248046875 0.5607638888888897  C 30.808268229166668 0.9346064814814797  31 1.3773148148148104  31 1.8888888888888897  C 31 2.4004629629629615  30.808268229166668 2.843171296296294  30.4248046875 3.2170138888888897  L 16.8623046875 16.43923611111111  C 16.478841145833336 16.813078703703706  16.024739583333336 17  15.5 17  C 14.97526041666667 17  14.52115885416667 16.813078703703706  14.1376953125 16.43923611111111  L 0.5751953125 3.2170138888888897  C 0.19173177083333331 2.843171296296294  0 2.4004629629629615  0 1.8888888888888897  C 0 1.3773148148148104  0.19173177083333331 0.9346064814814797  0.5751953125 0.5607638888888897  C 0.9586588541666667 0.18692129629629406  1.4127604166666667 0  1.9375 0  L 29.0625 0  C 29.587239583333336 0  30.041341145833336 0.18692129629629406  30.4248046875 0.5607638888888897  Z " stroke-width="0" stroke-dasharray="0" stroke="rgba(255, 255, 255, 0)" fill="none" transform="matrix(1 0 0 1 565 262 )" class="stroke" mask="url(#Clip887)" />
  </g>
</svg>