<?xml version="1.0" encoding="utf-8"?>
<svg version="1.1" xmlns:xlink="http://www.w3.org/1999/xlink" width="93px" height="40px" xmlns="http://www.w3.org/2000/svg">
  <defs>
    <pattern id="BGPattern" patternUnits="userSpaceOnUse" alignment="0 0" imageRepeat="None" />
    <mask fill="white" id="Clip152">
      <path d="M 0 40  L 0 0  L 93 0  L 93 40  L 0 40  Z " fill-rule="evenodd" />
    </mask>
    <mask fill="white" id="Clip153">
      <path d="M 15 11  L 80 11  L 80 30  L 15 30  Z M 0 0  L 93 0  L 93 40  L 0 40  Z " fill-rule="evenodd" />
    </mask>
  </defs>
  <g transform="matrix(1 0 0 1 -426 -713 )">
    <path d="M 0 40  L 0 0  L 93 0  L 93 40  L 0 40  Z " fill-rule="nonzero" fill="rgba(242, 242, 242, 1)" stroke="none" transform="matrix(1 0 0 1 426 713 )" class="fill" />
    <path d="M 0 40  L 0 0  L 93 0  L 93 40  L 0 40  Z " stroke-width="2" stroke-dasharray="0" stroke="rgba(121, 121, 121, 1)" fill="none" transform="matrix(1 0 0 1 426 713 )" class="stroke" mask="url(#Clip152)" />
    <path d="M 91.93208874531965 0.4593166686797212  L 1.0679112546803518 39.54068333132028  M 1.0679112546803518 0.4593166686797212  L 91.93208874531965 39.54068333132028  " stroke-width="1" stroke-dasharray="0" stroke="rgba(121, 121, 121, 1)" fill="none" transform="matrix(1 0 0 1 426 713 )" class="stroke" mask="url(#Clip153)" />
  </g>
</svg>