<?xml version="1.0" encoding="utf-8"?>
<svg version="1.1" xmlns:xlink="http://www.w3.org/1999/xlink" width="205px" height="36px" xmlns="http://www.w3.org/2000/svg">
  <defs>
    <pattern id="BGPattern" patternUnits="userSpaceOnUse" alignment="0 0" imageRepeat="None" />
    <mask fill="white" id="Clip888">
      <path d="M 0 36  L 0 0  L 205 0  L 205 36  L 0 36  Z " fill-rule="evenodd" />
    </mask>
  </defs>
  <g transform="matrix(1 0 0 1 -130 -148 )">
    <path d="M 0 36  L 0 0  L 205 0  L 205 36  L 0 36  Z " fill-rule="nonzero" fill="rgba(242, 242, 242, 1)" stroke="none" transform="matrix(1 0 0 1 130 148 )" class="fill" />
    <path d="M 0 36  L 0 0  L 205 0  L 205 36  L 0 36  Z " stroke-width="0" stroke-dasharray="0" stroke="rgba(121, 121, 121, 1)" fill="none" transform="matrix(1 0 0 1 130 148 )" class="stroke" mask="url(#Clip888)" />
    <path d="M 205 0  L 0 36  M 0 0  L 205 36  " stroke-width="0" stroke-dasharray="0" stroke="rgba(121, 121, 121, 1)" fill="none" transform="matrix(1 0 0 1 130 148 )" class="stroke" />
  </g>
</svg>