<?xml version="1.0" encoding="utf-8"?>
<svg version="1.1" xmlns:xlink="http://www.w3.org/1999/xlink" width="78px" height="84px" xmlns="http://www.w3.org/2000/svg">
  <defs>
    <pattern id="BGPattern" patternUnits="userSpaceOnUse" alignment="0 0" imageRepeat="None" />
    <mask fill="white" id="Clip486">
      <path d="M 61.28455621205358 12.478179  C 63.895028611607145 14.340775400000002  66.21250881026786 16.451932787500002  68.23735303125 18.809323312500002  C 70.26709688839286 21.169220887500003  72.00402665625 23.71697195  73.45313102678573 26.452397300000005  C 74.902324453125 29.190419300000002  76.00302737276786 32.0857618375  76.75532866741072 35.14343918750001  C 77.50762996205358 38.201116537500006  77.88631952678571 41.29953415  77.88631952678571 44.446123925  C 77.88631952678571 49.861281225  76.85625901339286 54.9413825625  74.80121582142858 59.686606875  C 72.74118393750001 64.4318311875  69.96403824776787 68.5680093  66.45490208035716 72.09012684999999  C 62.950754430803585 75.61224448749999  58.840667959821445 78.4060494875  54.1147544263393 80.47422801249999  C 49.398818102678575 82.542317025  44.33955798883929 83.57506325  38.95202904241072 83.57506325  C 33.62507614955358 83.57506325  28.601181810267864 82.542317025  23.87509007812501 80.47422801249999  C 19.159153754464295 78.40604939999999  15.028934665178578 75.6122444  11.494498988839291 72.09012684999999  C 7.960063312500007 68.5655021625  5.183006765625006 64.4318311875  3.153262908482148 59.686606875  C 1.1234299955357199 54.9413825625  0.11359124330357684 49.861281225  0.11359124330357684 44.446123925  C 0.11359124330357684 41.36042085  0.47205904687500544 38.330590287499994  1.1941614575892916 35.3617359375  C 1.921252473214292 32.392792074999996  2.9513129866071486 29.568543724999998  4.28425376785715 26.888811774999997  C 5.617194636160722 24.211765987499998  7.26326032366072 21.7071729  9.232428040178577 19.377718674999997  C 11.201595843750006 17.048174937499997  13.403090651785718 14.952239137499998  15.836823408482147 13.089642824999999  C 17.114265883928578 12.158344624999998  18.49263879241072 11.808156499999999  19.96704258482143 12.041585412499998  C 21.44135732142858 12.275014324999997  22.643079642857145 13.000819824999999  23.572120667410715 14.2239265875  C 24.501161604910717 15.446943749999999  24.844574537946432 16.814746024999998  24.617325194196432 18.3296612625  C 24.385087245535722 19.8445765875  23.663073890625004 21.0676832625  22.44112980803572 21.998891949999997  C 18.795608290178578 24.676027250000004  15.998330069196433 27.967223025000003  14.059450292410716 31.867465087500005  C 12.120570602678574 35.770214200000005  11.146097537946432 39.96217531250001  11.146097537946432 44.446034412500005  C 11.146097537946432 48.287896825000004  11.868110892857146 51.91396953750001  13.322292924107145 55.319417475  C 14.766319546875003 58.72737246250001  16.75072041964286 61.696316325000005  19.27023968303572 64.22875611250001  C 21.794836607142862 66.7611959  24.743555049107147 68.7709948625  28.13661685714286 70.25546683750001  C 31.52460091741072 71.739938725  35.129768055803574 72.48087638750002  38.95202912946429 72.48087638750002  C 42.77927880803572 72.48087638750002  46.384445946428585 71.73993872500002  49.77243000669644 70.25546683750001  C 53.16041406696429 68.77099495  56.11421025669643 66.76128550000001  58.63880718080357 64.22875611250001  C 61.15832635714286 61.696316325000005  63.15279358258929 58.72737246250001  64.63218597991072 55.319417475  C 66.11157837723215 51.91405913750001  66.84873574553572 48.287986425000014  66.84873574553572 44.446034412500005  C 66.84873574553572 39.90379566250001  65.80362036160714 35.610297012500006  63.71820000000002 31.562941987500004  C 61.63295783705359 27.515497362500003  58.70936053125001 24.181233212500004  54.94268690625002 21.562477475000005  C 53.670322178571446 20.689558925000007  52.902876783482164 19.494388462500005  52.640261665178585 17.982069787500002  C 52.37773568973217 16.467154462500005  52.68569370535717 15.068908925000002  53.55415858928574 13.787422600000003  C 54.422623473214315 12.564405437500003  55.60920186830359 11.823378262500004  57.11389368750002 11.562013050000003  C 58.62366316741071 11.298140700000001  60.012191484374995 11.605260450000001  61.28455621205358 12.478179  Z M 38.952029129464286 44.7074891375  C 37.447337310267855 44.7074891375  36.159739426339286 44.1695370375  35.084336015625006 43.091036275  C 34.01383206696429 42.015132162499995  33.47871376339286 40.718424075  34 39.203508837499996  L 34 6.014964287499999  C 33.47871367633928 4.5000489625  34.01392112276786 3.1907159374999994  35.08433592857143 2.0843684749999993  C 36.159739339285714 0.9781105249999996  37.44733722321429 0.4248472374999997  38.952029042410715 0.4248472374999997  C 40.517207859375006 0.4248472374999997  41.83509377008929 0.9781105249999996  42.905508575892846 2.0843684749999998  C 43.98100112946428 3.1907159375000007  44.516208488839276 4.500049049999999  44 6.014964287499999  L 44 39.2035088375  C 44.516208488839276 40.7184241625  43.9810010424107 42.0151321625  42.905508575892846 43.09103627500001  C 41.83509377008929 44.169626550000004  40.51720794642858 44.7074891375  38.952029129464286 44.7074891375  Z " fill-rule="evenodd" />
    </mask>
  </defs>
  <g transform="matrix(1 0 0 1 -250 -73 )">
    <path d="M 61.28455621205358 12.478179  C 63.895028611607145 14.340775400000002  66.21250881026786 16.451932787500002  68.23735303125 18.809323312500002  C 70.26709688839286 21.169220887500003  72.00402665625 23.71697195  73.45313102678573 26.452397300000005  C 74.902324453125 29.190419300000002  76.00302737276786 32.0857618375  76.75532866741072 35.14343918750001  C 77.50762996205358 38.201116537500006  77.88631952678571 41.29953415  77.88631952678571 44.446123925  C 77.88631952678571 49.861281225  76.85625901339286 54.9413825625  74.80121582142858 59.686606875  C 72.74118393750001 64.4318311875  69.96403824776787 68.5680093  66.45490208035716 72.09012684999999  C 62.950754430803585 75.61224448749999  58.840667959821445 78.4060494875  54.1147544263393 80.47422801249999  C 49.398818102678575 82.542317025  44.33955798883929 83.57506325  38.95202904241072 83.57506325  C 33.62507614955358 83.57506325  28.601181810267864 82.542317025  23.87509007812501 80.47422801249999  C 19.159153754464295 78.40604939999999  15.028934665178578 75.6122444  11.494498988839291 72.09012684999999  C 7.960063312500007 68.5655021625  5.183006765625006 64.4318311875  3.153262908482148 59.686606875  C 1.1234299955357199 54.9413825625  0.11359124330357684 49.861281225  0.11359124330357684 44.446123925  C 0.11359124330357684 41.36042085  0.47205904687500544 38.330590287499994  1.1941614575892916 35.3617359375  C 1.921252473214292 32.392792074999996  2.9513129866071486 29.568543724999998  4.28425376785715 26.888811774999997  C 5.617194636160722 24.211765987499998  7.26326032366072 21.7071729  9.232428040178577 19.377718674999997  C 11.201595843750006 17.048174937499997  13.403090651785718 14.952239137499998  15.836823408482147 13.089642824999999  C 17.114265883928578 12.158344624999998  18.49263879241072 11.808156499999999  19.96704258482143 12.041585412499998  C 21.44135732142858 12.275014324999997  22.643079642857145 13.000819824999999  23.572120667410715 14.2239265875  C 24.501161604910717 15.446943749999999  24.844574537946432 16.814746024999998  24.617325194196432 18.3296612625  C 24.385087245535722 19.8445765875  23.663073890625004 21.0676832625  22.44112980803572 21.998891949999997  C 18.795608290178578 24.676027250000004  15.998330069196433 27.967223025000003  14.059450292410716 31.867465087500005  C 12.120570602678574 35.770214200000005  11.146097537946432 39.96217531250001  11.146097537946432 44.446034412500005  C 11.146097537946432 48.287896825000004  11.868110892857146 51.91396953750001  13.322292924107145 55.319417475  C 14.766319546875003 58.72737246250001  16.75072041964286 61.696316325000005  19.27023968303572 64.22875611250001  C 21.794836607142862 66.7611959  24.743555049107147 68.7709948625  28.13661685714286 70.25546683750001  C 31.52460091741072 71.739938725  35.129768055803574 72.48087638750002  38.95202912946429 72.48087638750002  C 42.77927880803572 72.48087638750002  46.384445946428585 71.73993872500002  49.77243000669644 70.25546683750001  C 53.16041406696429 68.77099495  56.11421025669643 66.76128550000001  58.63880718080357 64.22875611250001  C 61.15832635714286 61.696316325000005  63.15279358258929 58.72737246250001  64.63218597991072 55.319417475  C 66.11157837723215 51.91405913750001  66.84873574553572 48.287986425000014  66.84873574553572 44.446034412500005  C 66.84873574553572 39.90379566250001  65.80362036160714 35.610297012500006  63.71820000000002 31.562941987500004  C 61.63295783705359 27.515497362500003  58.70936053125001 24.181233212500004  54.94268690625002 21.562477475000005  C 53.670322178571446 20.689558925000007  52.902876783482164 19.494388462500005  52.640261665178585 17.982069787500002  C 52.37773568973217 16.467154462500005  52.68569370535717 15.068908925000002  53.55415858928574 13.787422600000003  C 54.422623473214315 12.564405437500003  55.60920186830359 11.823378262500004  57.11389368750002 11.562013050000003  C 58.62366316741071 11.298140700000001  60.012191484374995 11.605260450000001  61.28455621205358 12.478179  Z M 38.952029129464286 44.7074891375  C 37.447337310267855 44.7074891375  36.159739426339286 44.1695370375  35.084336015625006 43.091036275  C 34.01383206696429 42.015132162499995  33.47871376339286 40.718424075  34 39.203508837499996  L 34 6.014964287499999  C 33.47871367633928 4.5000489625  34.01392112276786 3.1907159374999994  35.08433592857143 2.0843684749999993  C 36.159739339285714 0.9781105249999996  37.44733722321429 0.4248472374999997  38.952029042410715 0.4248472374999997  C 40.517207859375006 0.4248472374999997  41.83509377008929 0.9781105249999996  42.905508575892846 2.0843684749999998  C 43.98100112946428 3.1907159375000007  44.516208488839276 4.500049049999999  44 6.014964287499999  L 44 39.2035088375  C 44.516208488839276 40.7184241625  43.9810010424107 42.0151321625  42.905508575892846 43.09103627500001  C 41.83509377008929 44.169626550000004  40.51720794642858 44.7074891375  38.952029129464286 44.7074891375  Z " fill-rule="nonzero" fill="rgba(51, 51, 51, 1)" stroke="none" transform="matrix(1 0 0 1 250 73 )" class="fill" />
    <path d="M 61.28455621205358 12.478179  C 63.895028611607145 14.340775400000002  66.21250881026786 16.451932787500002  68.23735303125 18.809323312500002  C 70.26709688839286 21.169220887500003  72.00402665625 23.71697195  73.45313102678573 26.452397300000005  C 74.902324453125 29.190419300000002  76.00302737276786 32.0857618375  76.75532866741072 35.14343918750001  C 77.50762996205358 38.201116537500006  77.88631952678571 41.29953415  77.88631952678571 44.446123925  C 77.88631952678571 49.861281225  76.85625901339286 54.9413825625  74.80121582142858 59.686606875  C 72.74118393750001 64.4318311875  69.96403824776787 68.5680093  66.45490208035716 72.09012684999999  C 62.950754430803585 75.61224448749999  58.840667959821445 78.4060494875  54.1147544263393 80.47422801249999  C 49.398818102678575 82.542317025  44.33955798883929 83.57506325  38.95202904241072 83.57506325  C 33.62507614955358 83.57506325  28.601181810267864 82.542317025  23.87509007812501 80.47422801249999  C 19.159153754464295 78.40604939999999  15.028934665178578 75.6122444  11.494498988839291 72.09012684999999  C 7.960063312500007 68.5655021625  5.183006765625006 64.4318311875  3.153262908482148 59.686606875  C 1.1234299955357199 54.9413825625  0.11359124330357684 49.861281225  0.11359124330357684 44.446123925  C 0.11359124330357684 41.36042085  0.47205904687500544 38.330590287499994  1.1941614575892916 35.3617359375  C 1.921252473214292 32.392792074999996  2.9513129866071486 29.568543724999998  4.28425376785715 26.888811774999997  C 5.617194636160722 24.211765987499998  7.26326032366072 21.7071729  9.232428040178577 19.377718674999997  C 11.201595843750006 17.048174937499997  13.403090651785718 14.952239137499998  15.836823408482147 13.089642824999999  C 17.114265883928578 12.158344624999998  18.49263879241072 11.808156499999999  19.96704258482143 12.041585412499998  C 21.44135732142858 12.275014324999997  22.643079642857145 13.000819824999999  23.572120667410715 14.2239265875  C 24.501161604910717 15.446943749999999  24.844574537946432 16.814746024999998  24.617325194196432 18.3296612625  C 24.385087245535722 19.8445765875  23.663073890625004 21.0676832625  22.44112980803572 21.998891949999997  C 18.795608290178578 24.676027250000004  15.998330069196433 27.967223025000003  14.059450292410716 31.867465087500005  C 12.120570602678574 35.770214200000005  11.146097537946432 39.96217531250001  11.146097537946432 44.446034412500005  C 11.146097537946432 48.287896825000004  11.868110892857146 51.91396953750001  13.322292924107145 55.319417475  C 14.766319546875003 58.72737246250001  16.75072041964286 61.696316325000005  19.27023968303572 64.22875611250001  C 21.794836607142862 66.7611959  24.743555049107147 68.7709948625  28.13661685714286 70.25546683750001  C 31.52460091741072 71.739938725  35.129768055803574 72.48087638750002  38.95202912946429 72.48087638750002  C 42.77927880803572 72.48087638750002  46.384445946428585 71.73993872500002  49.77243000669644 70.25546683750001  C 53.16041406696429 68.77099495  56.11421025669643 66.76128550000001  58.63880718080357 64.22875611250001  C 61.15832635714286 61.696316325000005  63.15279358258929 58.72737246250001  64.63218597991072 55.319417475  C 66.11157837723215 51.91405913750001  66.84873574553572 48.287986425000014  66.84873574553572 44.446034412500005  C 66.84873574553572 39.90379566250001  65.80362036160714 35.610297012500006  63.71820000000002 31.562941987500004  C 61.63295783705359 27.515497362500003  58.70936053125001 24.181233212500004  54.94268690625002 21.562477475000005  C 53.670322178571446 20.689558925000007  52.902876783482164 19.494388462500005  52.640261665178585 17.982069787500002  C 52.37773568973217 16.467154462500005  52.68569370535717 15.068908925000002  53.55415858928574 13.787422600000003  C 54.422623473214315 12.564405437500003  55.60920186830359 11.823378262500004  57.11389368750002 11.562013050000003  C 58.62366316741071 11.298140700000001  60.012191484374995 11.605260450000001  61.28455621205358 12.478179  Z " stroke-width="0" stroke-dasharray="0" stroke="rgba(255, 255, 255, 0)" fill="none" transform="matrix(1 0 0 1 250 73 )" class="stroke" mask="url(#Clip486)" />
    <path d="M 38.952029129464286 44.7074891375  C 37.447337310267855 44.7074891375  36.159739426339286 44.1695370375  35.084336015625006 43.091036275  C 34.01383206696429 42.015132162499995  33.47871376339286 40.718424075  34 39.203508837499996  L 34 6.014964287499999  C 33.47871367633928 4.5000489625  34.01392112276786 3.1907159374999994  35.08433592857143 2.0843684749999993  C 36.159739339285714 0.9781105249999996  37.44733722321429 0.4248472374999997  38.952029042410715 0.4248472374999997  C 40.517207859375006 0.4248472374999997  41.83509377008929 0.9781105249999996  42.905508575892846 2.0843684749999998  C 43.98100112946428 3.1907159375000007  44.516208488839276 4.500049049999999  44 6.014964287499999  L 44 39.2035088375  C 44.516208488839276 40.7184241625  43.9810010424107 42.0151321625  42.905508575892846 43.09103627500001  C 41.83509377008929 44.169626550000004  40.51720794642858 44.7074891375  38.952029129464286 44.7074891375  Z " stroke-width="0" stroke-dasharray="0" stroke="rgba(255, 255, 255, 0)" fill="none" transform="matrix(1 0 0 1 250 73 )" class="stroke" mask="url(#Clip486)" />
  </g>
</svg>