<?xml version="1.0" encoding="utf-8"?>
<svg version="1.1" xmlns:xlink="http://www.w3.org/1999/xlink" width="21px" height="21px" xmlns="http://www.w3.org/2000/svg">
  <defs>
    <pattern id="BGPattern" patternUnits="userSpaceOnUse" alignment="0 0" imageRepeat="None" />
    <mask fill="white" id="Clip608">
      <path d="M 13.936758629882812 2.730724130859375  C 13.936758629882812 4.2362068916015625  12.712241390625 5.461086196289062  11.206758629882813 5.461086216796875  C 9.701275869140625 5.461086216796875  8.476034499023438 4.236206912109374  8.476034478515626 2.730724130859375  C 8.476034478515626 1.2256034560546876  9.701275869140625 0  11.206758629882813 0  C 12.712241390625 0  13.936758629882812 1.2248793046875  13.936758629882812 2.730724130859375  Z M 7.887672413085937 5.1348620654296875  C 7.887672413085937 6.51  6.7688793046875 7.6295172392578126  5.393741370117187 7.6295172392578126  C 4.018603435546875 7.6295172392578126  2.8994482617187494 6.510724130859375  2.8994482822265617 5.1348620654296875  C 2.8994483027343745 3.759  4.018603456054687 2.6402068916015624  5.393741370117187 2.6402068916015624  C 6.770639492632011 2.6420029141802512  7.886276124838851 3.7579634795269063  7.887672413085937 5.1348620654296875  Z M 2.923344826171875 13.272362065429688  C 1.7088290473425545 13.271163677476496  0.7247366054283805 12.286585179546323  0.7241379345703126 11.07206895703125  C 0.7253354613273754 9.857976906862726  1.7092527760033498 8.87405959218675  2.923344826171875 8.872862065429688  C 4.137295478625036 8.874259114258319  5.1209924782012175 9.858118091011148  5.12218965234375 11.07206895703125  C 5.121391626491925 12.286302602472295  4.137577929408303 13.270602297908344  2.923344826171875 13.272  Z M 7.258396543945313 16.997327586914064  C 7.258396543945313 18.02560345605469  6.422017239257812 18.86270689160156  5.393741370117187 18.86270689160156  C 4.364075883203442 18.86150939251827  3.5297217550440463 18.026993286882437  3.5287241308593744 16.997327586914064  C 3.530119772738044 15.968026962988029  4.364078971131075 15.133905832351575  5.3933793046875 15.132310347656249  C 6.422821036358464 15.133706470881393  7.257000420720173 15.967885855243102  7.258396543945313 16.997327586914064  Z M 11.20675862988281 20.999999999999996  C 10.307246331674623 20.999201494207014  9.578246788019543 20.270201950551932  9.577448282226563 19.37068965234375  C 9.577448282226563 18.472034478515624  10.308465521484374 17.741379304687502  11.20675862988281 17.7413793046875  C 12.106129521520977 17.742377377490932  12.834908710597789 18.47131856109029  12.835706891601562 19.37068965234375  C 12.835706891601562 20.269344826171878  12.105051717773437 21  11.206396543945313 21  Z M 18.422793108398437 16.931068957031247  C 18.421994937775846 17.657011578202543  17.833701251041656 18.2453052741111  17.107758629882813 18.246103456054684  C 16.381816000715173 18.24530528541087  15.793522301503192 17.65701158619889  15.792724130859375 16.931068957031247  C 15.793522312802956 16.205126335872404  16.381816008711525 15.616832649138214  17.107758629882813 15.616034478515623  C 17.833701243045304 15.616832660437982  18.421994926476078 16.205126343868756  18.422793108398437 16.931068957031247  Z M 20.603896543945318 11.082206891601562  C 20.602899915137073 11.67788975237357  20.120251817803258 12.16053784970738  19.524568957031253 12.161534478515623  C 18.92900353604194 12.160736663573317  18.44640125967713 11.678134378035727  18.44560345605469 11.08256895703125  C 18.44620181665015 10.486862145619178  18.92886237991948 10.004039608123248  19.524568957031253 10.003241370117186  C 20.120193245254598 10.004038696133517  20.602899379539554 10.486582904413762  20.603896543945318 11.082206891601562  Z M 16.270655154257213 5.21578448876953  C 16.270655154257213 5.678203948332456  16.64552019278083 6.0530689868560685  17.10793965234375 6.0530689868560685  C 17.570288415816172 6.0530689868560685  17.94512416453724 5.678314274149732  17.945224130859376 5.215965521484374  C 17.945224130859376 4.753546072730165  17.57035910109796 4.378681042968748  17.10793965234375 4.378681042968748  C 16.64552020358954 4.378681042968748  16.270655173828125 4.753546072730165  16.270655173828125 5.215965521484374  Z " fill-rule="evenodd" />
    </mask>
  </defs>
  <g transform="matrix(1 0 0 1 -17 -4 )">
    <path d="M 13.936758629882812 2.730724130859375  C 13.936758629882812 4.2362068916015625  12.712241390625 5.461086196289062  11.206758629882813 5.461086216796875  C 9.701275869140625 5.461086216796875  8.476034499023438 4.236206912109374  8.476034478515626 2.730724130859375  C 8.476034478515626 1.2256034560546876  9.701275869140625 0  11.206758629882813 0  C 12.712241390625 0  13.936758629882812 1.2248793046875  13.936758629882812 2.730724130859375  Z M 7.887672413085937 5.1348620654296875  C 7.887672413085937 6.51  6.7688793046875 7.6295172392578126  5.393741370117187 7.6295172392578126  C 4.018603435546875 7.6295172392578126  2.8994482617187494 6.510724130859375  2.8994482822265617 5.1348620654296875  C 2.8994483027343745 3.759  4.018603456054687 2.6402068916015624  5.393741370117187 2.6402068916015624  C 6.770639492632011 2.6420029141802512  7.886276124838851 3.7579634795269063  7.887672413085937 5.1348620654296875  Z M 2.923344826171875 13.272362065429688  C 1.7088290473425545 13.271163677476496  0.7247366054283805 12.286585179546323  0.7241379345703126 11.07206895703125  C 0.7253354613273754 9.857976906862726  1.7092527760033498 8.87405959218675  2.923344826171875 8.872862065429688  C 4.137295478625036 8.874259114258319  5.1209924782012175 9.858118091011148  5.12218965234375 11.07206895703125  C 5.121391626491925 12.286302602472295  4.137577929408303 13.270602297908344  2.923344826171875 13.272  Z M 7.258396543945313 16.997327586914064  C 7.258396543945313 18.02560345605469  6.422017239257812 18.86270689160156  5.393741370117187 18.86270689160156  C 4.364075883203442 18.86150939251827  3.5297217550440463 18.026993286882437  3.5287241308593744 16.997327586914064  C 3.530119772738044 15.968026962988029  4.364078971131075 15.133905832351575  5.3933793046875 15.132310347656249  C 6.422821036358464 15.133706470881393  7.257000420720173 15.967885855243102  7.258396543945313 16.997327586914064  Z M 11.20675862988281 20.999999999999996  C 10.307246331674623 20.999201494207014  9.578246788019543 20.270201950551932  9.577448282226563 19.37068965234375  C 9.577448282226563 18.472034478515624  10.308465521484374 17.741379304687502  11.20675862988281 17.7413793046875  C 12.106129521520977 17.742377377490932  12.834908710597789 18.47131856109029  12.835706891601562 19.37068965234375  C 12.835706891601562 20.269344826171878  12.105051717773437 21  11.206396543945313 21  Z M 18.422793108398437 16.931068957031247  C 18.421994937775846 17.657011578202543  17.833701251041656 18.2453052741111  17.107758629882813 18.246103456054684  C 16.381816000715173 18.24530528541087  15.793522301503192 17.65701158619889  15.792724130859375 16.931068957031247  C 15.793522312802956 16.205126335872404  16.381816008711525 15.616832649138214  17.107758629882813 15.616034478515623  C 17.833701243045304 15.616832660437982  18.421994926476078 16.205126343868756  18.422793108398437 16.931068957031247  Z M 20.603896543945318 11.082206891601562  C 20.602899915137073 11.67788975237357  20.120251817803258 12.16053784970738  19.524568957031253 12.161534478515623  C 18.92900353604194 12.160736663573317  18.44640125967713 11.678134378035727  18.44560345605469 11.08256895703125  C 18.44620181665015 10.486862145619178  18.92886237991948 10.004039608123248  19.524568957031253 10.003241370117186  C 20.120193245254598 10.004038696133517  20.602899379539554 10.486582904413762  20.603896543945318 11.082206891601562  Z M 16.270655154257213 5.21578448876953  C 16.270655154257213 5.678203948332456  16.64552019278083 6.0530689868560685  17.10793965234375 6.0530689868560685  C 17.570288415816172 6.0530689868560685  17.94512416453724 5.678314274149732  17.945224130859376 5.215965521484374  C 17.945224130859376 4.753546072730165  17.57035910109796 4.378681042968748  17.10793965234375 4.378681042968748  C 16.64552020358954 4.378681042968748  16.270655173828125 4.753546072730165  16.270655173828125 5.215965521484374  Z " fill-rule="nonzero" fill="rgba(255, 255, 255, 1)" stroke="none" transform="matrix(1 0 0 1 17 4 )" class="fill" />
    <path d="M 13.936758629882812 2.730724130859375  C 13.936758629882812 4.2362068916015625  12.712241390625 5.461086196289062  11.206758629882813 5.461086216796875  C 9.701275869140625 5.461086216796875  8.476034499023438 4.236206912109374  8.476034478515626 2.730724130859375  C 8.476034478515626 1.2256034560546876  9.701275869140625 0  11.206758629882813 0  C 12.712241390625 0  13.936758629882812 1.2248793046875  13.936758629882812 2.730724130859375  Z " stroke-width="0" stroke-dasharray="0" stroke="rgba(255, 255, 255, 0)" fill="none" transform="matrix(1 0 0 1 17 4 )" class="stroke" mask="url(#Clip608)" />
    <path d="M 7.887672413085937 5.1348620654296875  C 7.887672413085937 6.51  6.7688793046875 7.6295172392578126  5.393741370117187 7.6295172392578126  C 4.018603435546875 7.6295172392578126  2.8994482617187494 6.510724130859375  2.8994482822265617 5.1348620654296875  C 2.8994483027343745 3.759  4.018603456054687 2.6402068916015624  5.393741370117187 2.6402068916015624  C 6.770639492632011 2.6420029141802512  7.886276124838851 3.7579634795269063  7.887672413085937 5.1348620654296875  Z " stroke-width="0" stroke-dasharray="0" stroke="rgba(255, 255, 255, 0)" fill="none" transform="matrix(1 0 0 1 17 4 )" class="stroke" mask="url(#Clip608)" />
    <path d="M 2.923344826171875 13.272362065429688  C 1.7088290473425545 13.271163677476496  0.7247366054283805 12.286585179546323  0.7241379345703126 11.07206895703125  C 0.7253354613273754 9.857976906862726  1.7092527760033498 8.87405959218675  2.923344826171875 8.872862065429688  C 4.137295478625036 8.874259114258319  5.1209924782012175 9.858118091011148  5.12218965234375 11.07206895703125  C 5.121391626491925 12.286302602472295  4.137577929408303 13.270602297908344  2.923344826171875 13.272  Z " stroke-width="0" stroke-dasharray="0" stroke="rgba(255, 255, 255, 0)" fill="none" transform="matrix(1 0 0 1 17 4 )" class="stroke" mask="url(#Clip608)" />
    <path d="M 7.258396543945313 16.997327586914064  C 7.258396543945313 18.02560345605469  6.422017239257812 18.86270689160156  5.393741370117187 18.86270689160156  C 4.364075883203442 18.86150939251827  3.5297217550440463 18.026993286882437  3.5287241308593744 16.997327586914064  C 3.530119772738044 15.968026962988029  4.364078971131075 15.133905832351575  5.3933793046875 15.132310347656249  C 6.422821036358464 15.133706470881393  7.257000420720173 15.967885855243102  7.258396543945313 16.997327586914064  Z " stroke-width="0" stroke-dasharray="0" stroke="rgba(255, 255, 255, 0)" fill="none" transform="matrix(1 0 0 1 17 4 )" class="stroke" mask="url(#Clip608)" />
    <path d="M 11.20675862988281 20.999999999999996  C 10.307246331674623 20.999201494207014  9.578246788019543 20.270201950551932  9.577448282226563 19.37068965234375  C 9.577448282226563 18.472034478515624  10.308465521484374 17.741379304687502  11.20675862988281 17.7413793046875  C 12.106129521520977 17.742377377490932  12.834908710597789 18.47131856109029  12.835706891601562 19.37068965234375  C 12.835706891601562 20.269344826171878  12.105051717773437 21  11.206396543945313 21  Z " stroke-width="0" stroke-dasharray="0" stroke="rgba(255, 255, 255, 0)" fill="none" transform="matrix(1 0 0 1 17 4 )" class="stroke" mask="url(#Clip608)" />
    <path d="M 18.422793108398437 16.931068957031247  C 18.421994937775846 17.657011578202543  17.833701251041656 18.2453052741111  17.107758629882813 18.246103456054684  C 16.381816000715173 18.24530528541087  15.793522301503192 17.65701158619889  15.792724130859375 16.931068957031247  C 15.793522312802956 16.205126335872404  16.381816008711525 15.616832649138214  17.107758629882813 15.616034478515623  C 17.833701243045304 15.616832660437982  18.421994926476078 16.205126343868756  18.422793108398437 16.931068957031247  Z " stroke-width="0" stroke-dasharray="0" stroke="rgba(255, 255, 255, 0)" fill="none" transform="matrix(1 0 0 1 17 4 )" class="stroke" mask="url(#Clip608)" />
    <path d="M 20.603896543945318 11.082206891601562  C 20.602899915137073 11.67788975237357  20.120251817803258 12.16053784970738  19.524568957031253 12.161534478515623  C 18.92900353604194 12.160736663573317  18.44640125967713 11.678134378035727  18.44560345605469 11.08256895703125  C 18.44620181665015 10.486862145619178  18.92886237991948 10.004039608123248  19.524568957031253 10.003241370117186  C 20.120193245254598 10.004038696133517  20.602899379539554 10.486582904413762  20.603896543945318 11.082206891601562  Z " stroke-width="0" stroke-dasharray="0" stroke="rgba(255, 255, 255, 0)" fill="none" transform="matrix(1 0 0 1 17 4 )" class="stroke" mask="url(#Clip608)" />
    <path d="M 16.270655154257213 5.21578448876953  C 16.270655154257213 5.678203948332456  16.64552019278083 6.0530689868560685  17.10793965234375 6.0530689868560685  C 17.570288415816172 6.0530689868560685  17.94512416453724 5.678314274149732  17.945224130859376 5.215965521484374  C 17.945224130859376 4.753546072730165  17.57035910109796 4.378681042968748  17.10793965234375 4.378681042968748  C 16.64552020358954 4.378681042968748  16.270655173828125 4.753546072730165  16.270655173828125 5.215965521484374  Z " stroke-width="0" stroke-dasharray="0" stroke="rgba(255, 255, 255, 0)" fill="none" transform="matrix(1 0 0 1 17 4 )" class="stroke" mask="url(#Clip608)" />
  </g>
</svg>