<?xml version="1.0" encoding="utf-8"?>
<svg version="1.1" xmlns:xlink="http://www.w3.org/1999/xlink" width="93px" height="92px" xmlns="http://www.w3.org/2000/svg">
  <defs>
    <pattern id="BGPattern" patternUnits="userSpaceOnUse" alignment="0 0" imageRepeat="None" />
    <mask fill="white" id="Clip2111">
      <path d="M 0 92  L 0 0  L 93 0  L 93 92  L 0 92  Z " fill-rule="evenodd" />
    </mask>
    <mask fill="white" id="Clip2112">
      <path d="M 21.5 37  L 73.5 37  L 73.5 56  L 21.5 56  Z M 0 0  L 93 0  L 93 92  L 0 92  Z " fill-rule="evenodd" />
    </mask>
  </defs>
  <g transform="matrix(1 0 0 1 -528 -661 )">
    <path d="M 0 92  L 0 0  L 93 0  L 93 92  L 0 92  Z " fill-rule="nonzero" fill="rgba(242, 242, 242, 1)" stroke="none" transform="matrix(1 0 0 1 528 661 )" class="fill" />
    <path d="M 0 92  L 0 0  L 93 0  L 93 92  L 0 92  Z " stroke-width="2" stroke-dasharray="0" stroke="rgba(121, 121, 121, 1)" fill="none" transform="matrix(1 0 0 1 528 661 )" class="stroke" mask="url(#Clip2111)" />
    <path d="M 92.64067701492594 0.35545929706250534  L 0.3593229850740543 91.64454070293749  M 0.3593229850740543 0.35545929706250534  L 92.64067701492594 91.64454070293749  " stroke-width="1" stroke-dasharray="0" stroke="rgba(121, 121, 121, 1)" fill="none" transform="matrix(1 0 0 1 528 661 )" class="stroke" mask="url(#Clip2112)" />
  </g>
</svg>