<?xml version="1.0" encoding="utf-8"?>
<svg version="1.1" xmlns:xlink="http://www.w3.org/1999/xlink" width="69px" height="18px" xmlns="http://www.w3.org/2000/svg">
  <defs>
    <pattern id="BGPattern" patternUnits="userSpaceOnUse" alignment="0 0" imageRepeat="None" />
    <mask fill="white" id="Clip1990">
      <path d="M 0 18  L 0 0  L 69 0  L 69 18  L 0 18  Z " fill-rule="evenodd" />
    </mask>
    <mask fill="white" id="Clip1991">
      <path d="M 1 1  L 70 1  L 70 20  L 1 20  Z M 0 0  L 69 0  L 69 18  L 0 18  Z " fill-rule="evenodd" />
    </mask>
  </defs>
  <g transform="matrix(1 0 0 1 -164 -251 )">
    <path d="M 0 18  L 0 0  L 69 0  L 69 18  L 0 18  Z " fill-rule="nonzero" fill="rgba(242, 242, 242, 1)" stroke="none" transform="matrix(1 0 0 1 164 251 )" class="fill" />
    <path d="M 0 18  L 0 0  L 69 0  L 69 18  L 0 18  Z " stroke-width="2" stroke-dasharray="0" stroke="rgba(121, 121, 121, 1)" fill="none" transform="matrix(1 0 0 1 164 251 )" class="stroke" mask="url(#Clip1990)" />
    <path d="M 67.14540022790605 0.48380863619842196  L 1.8545997720939509 17.51619136380158  M 1.8545997720939509 0.48380863619842196  L 67.14540022790605 17.51619136380158  " stroke-width="1" stroke-dasharray="0" stroke="rgba(121, 121, 121, 1)" fill="none" transform="matrix(1 0 0 1 164 251 )" class="stroke" mask="url(#Clip1991)" />
  </g>
</svg>