<?xml version="1.0" encoding="utf-8"?>
<svg version="1.1" xmlns:xlink="http://www.w3.org/1999/xlink" width="14px" height="14px" xmlns="http://www.w3.org/2000/svg">
  <defs>
    <pattern id="BGPattern" patternUnits="userSpaceOnUse" alignment="0 0" imageRepeat="None" />
    <mask fill="white" id="Clip489">
      <path d="M 7.50092748178138 4.244043659919043  C 6.920580663967614 4.244043659919043  6.478892566801619 3.7758020404858317  6.478892566801619 3.2285382995951295  C 6.478892566801619 2.6811874979757135  6.920580663967614 2.226179109311746  7.50092748178138 2.226179109311746  C 8.061598574898785 2.226179109311746  8.516461862348184 2.6811874979757135  8.516461862348184 3.2285382995951295  C 8.516461862348184 3.7758020404858317  8.061584064777332 4.244043659919043  7.50092748178138 4.244043659919043  Z M 8.46755174535809 11.142374314381255  C 8.169162355437663 11.434907826086942  7.3986118620689725 11.97799170568562  6.1344675649867435 11.79609471571905  C 5.506088742705567 11.70561070234115  5.37080462599469 11.217290702341149  5.421570037135279 10.67252869565218  C 5.4744887002652485 10.107479331103683  5.763694684350138 9.435898862876247  5.94663554376658 9.058664882943127  C 6.295120127320961 8.339392642140455  6.562180413793101 7.213204548494979  5.9012746525199 7.213204548494979  C 5.816884286472154 7.213204548494979  5.678634100795757 7.160628227424743  5.985379819628653 6.988635183946481  C 6.346413156498681 6.786106220735785  6.879592572944294 6.507057658862861  7.40482919893899 6.573163879598667  C 8.285951320954906 6.684115050167209  8.44405135278514 7.698093377926407  8.046284392572947 8.50707050167225  C 7.633943766578252 9.345924280936462  7.278314949602116 10.356861003344468  7.424108647214856 10.699753311036773  C 7.524826652519894 10.936099531772562  8.0138715331565 11.00620628762541  8.331568891246686 11.00620628762541  C 8.512898376657827 11.00620628762541  8.55814518832891 11.053568428093648  8.46755174535809 11.142374314381255  Z M 2.0648438938053064 2.041647999999996  C 0.6813564601769931 3.437791999999993  0.039915610619470514 5.044751999999995  0.039915610619470514 6.986351999999989  C 0.039915610619470514 8.935071999999987  0.6813564601769931 10.54211200000001  2.0648438938053064 11.938256000000006  C 3.448664353982298 13.334415999999989  5.041752353982304 13.974336000000003  6.965789451327435 13.974336000000003  C 8.890143716814164 13.974336000000003  10.482946265486735 13.334415999999989  11.866766725663727 11.938256000000006  C 13.250539610619459 10.54211200000001  13.891996318584063 8.935088000000004  13.891996318584063 6.986351999999989  C 13.891996318584063 5.044736000000009  13.250539610619459 3.437791999999993  11.866766725663727 2.041647999999996  C 10.482946265486719 0.6454880000000134  8.890143716814164 0.0056000000000022525  6.965789451327435 0.0056000000000022525  C 5.041752353982304 0.0056000000000022525  3.4486484955752177 0.6454880000000134  2.0648438938053064 2.041647999999996  Z " fill-rule="evenodd" />
    </mask>
  </defs>
  <g transform="matrix(1 0 0 1 -432 -18 )">
    <path d="M 7.50092748178138 4.244043659919043  C 6.920580663967614 4.244043659919043  6.478892566801619 3.7758020404858317  6.478892566801619 3.2285382995951295  C 6.478892566801619 2.6811874979757135  6.920580663967614 2.226179109311746  7.50092748178138 2.226179109311746  C 8.061598574898785 2.226179109311746  8.516461862348184 2.6811874979757135  8.516461862348184 3.2285382995951295  C 8.516461862348184 3.7758020404858317  8.061584064777332 4.244043659919043  7.50092748178138 4.244043659919043  Z M 8.46755174535809 11.142374314381255  C 8.169162355437663 11.434907826086942  7.3986118620689725 11.97799170568562  6.1344675649867435 11.79609471571905  C 5.506088742705567 11.70561070234115  5.37080462599469 11.217290702341149  5.421570037135279 10.67252869565218  C 5.4744887002652485 10.107479331103683  5.763694684350138 9.435898862876247  5.94663554376658 9.058664882943127  C 6.295120127320961 8.339392642140455  6.562180413793101 7.213204548494979  5.9012746525199 7.213204548494979  C 5.816884286472154 7.213204548494979  5.678634100795757 7.160628227424743  5.985379819628653 6.988635183946481  C 6.346413156498681 6.786106220735785  6.879592572944294 6.507057658862861  7.40482919893899 6.573163879598667  C 8.285951320954906 6.684115050167209  8.44405135278514 7.698093377926407  8.046284392572947 8.50707050167225  C 7.633943766578252 9.345924280936462  7.278314949602116 10.356861003344468  7.424108647214856 10.699753311036773  C 7.524826652519894 10.936099531772562  8.0138715331565 11.00620628762541  8.331568891246686 11.00620628762541  C 8.512898376657827 11.00620628762541  8.55814518832891 11.053568428093648  8.46755174535809 11.142374314381255  Z M 2.0648438938053064 2.041647999999996  C 0.6813564601769931 3.437791999999993  0.039915610619470514 5.044751999999995  0.039915610619470514 6.986351999999989  C 0.039915610619470514 8.935071999999987  0.6813564601769931 10.54211200000001  2.0648438938053064 11.938256000000006  C 3.448664353982298 13.334415999999989  5.041752353982304 13.974336000000003  6.965789451327435 13.974336000000003  C 8.890143716814164 13.974336000000003  10.482946265486735 13.334415999999989  11.866766725663727 11.938256000000006  C 13.250539610619459 10.54211200000001  13.891996318584063 8.935088000000004  13.891996318584063 6.986351999999989  C 13.891996318584063 5.044736000000009  13.250539610619459 3.437791999999993  11.866766725663727 2.041647999999996  C 10.482946265486719 0.6454880000000134  8.890143716814164 0.0056000000000022525  6.965789451327435 0.0056000000000022525  C 5.041752353982304 0.0056000000000022525  3.4486484955752177 0.6454880000000134  2.0648438938053064 2.041647999999996  Z " fill-rule="nonzero" fill="rgba(85, 85, 85, 1)" stroke="none" transform="matrix(1 0 0 1 432 18 )" class="fill" />
    <path d="M 7.50092748178138 4.244043659919043  C 6.920580663967614 4.244043659919043  6.478892566801619 3.7758020404858317  6.478892566801619 3.2285382995951295  C 6.478892566801619 2.6811874979757135  6.920580663967614 2.226179109311746  7.50092748178138 2.226179109311746  C 8.061598574898785 2.226179109311746  8.516461862348184 2.6811874979757135  8.516461862348184 3.2285382995951295  C 8.516461862348184 3.7758020404858317  8.061584064777332 4.244043659919043  7.50092748178138 4.244043659919043  Z " stroke-width="0" stroke-dasharray="0" stroke="rgba(255, 255, 255, 0)" fill="none" transform="matrix(1 0 0 1 432 18 )" class="stroke" mask="url(#Clip489)" />
    <path d="M 8.46755174535809 11.142374314381255  C 8.169162355437663 11.434907826086942  7.3986118620689725 11.97799170568562  6.1344675649867435 11.79609471571905  C 5.506088742705567 11.70561070234115  5.37080462599469 11.217290702341149  5.421570037135279 10.67252869565218  C 5.4744887002652485 10.107479331103683  5.763694684350138 9.435898862876247  5.94663554376658 9.058664882943127  C 6.295120127320961 8.339392642140455  6.562180413793101 7.213204548494979  5.9012746525199 7.213204548494979  C 5.816884286472154 7.213204548494979  5.678634100795757 7.160628227424743  5.985379819628653 6.988635183946481  C 6.346413156498681 6.786106220735785  6.879592572944294 6.507057658862861  7.40482919893899 6.573163879598667  C 8.285951320954906 6.684115050167209  8.44405135278514 7.698093377926407  8.046284392572947 8.50707050167225  C 7.633943766578252 9.345924280936462  7.278314949602116 10.356861003344468  7.424108647214856 10.699753311036773  C 7.524826652519894 10.936099531772562  8.0138715331565 11.00620628762541  8.331568891246686 11.00620628762541  C 8.512898376657827 11.00620628762541  8.55814518832891 11.053568428093648  8.46755174535809 11.142374314381255  Z " stroke-width="0" stroke-dasharray="0" stroke="rgba(255, 255, 255, 0)" fill="none" transform="matrix(1 0 0 1 432 18 )" class="stroke" mask="url(#Clip489)" />
    <path d="M 2.0648438938053064 2.041647999999996  C 0.6813564601769931 3.437791999999993  0.039915610619470514 5.044751999999995  0.039915610619470514 6.986351999999989  C 0.039915610619470514 8.935071999999987  0.6813564601769931 10.54211200000001  2.0648438938053064 11.938256000000006  C 3.448664353982298 13.334415999999989  5.041752353982304 13.974336000000003  6.965789451327435 13.974336000000003  C 8.890143716814164 13.974336000000003  10.482946265486735 13.334415999999989  11.866766725663727 11.938256000000006  C 13.250539610619459 10.54211200000001  13.891996318584063 8.935088000000004  13.891996318584063 6.986351999999989  C 13.891996318584063 5.044736000000009  13.250539610619459 3.437791999999993  11.866766725663727 2.041647999999996  C 10.482946265486719 0.6454880000000134  8.890143716814164 0.0056000000000022525  6.965789451327435 0.0056000000000022525  C 5.041752353982304 0.0056000000000022525  3.4486484955752177 0.6454880000000134  2.0648438938053064 2.041647999999996  Z " stroke-width="0" stroke-dasharray="0" stroke="rgba(255, 255, 255, 0)" fill="none" transform="matrix(1 0 0 1 432 18 )" class="stroke" mask="url(#Clip489)" />
  </g>
</svg>