<?xml version="1.0" encoding="utf-8"?>
<svg version="1.1" xmlns:xlink="http://www.w3.org/1999/xlink" width="151px" height="68px" xmlns="http://www.w3.org/2000/svg">
  <defs>
    <pattern id="BGPattern" patternUnits="userSpaceOnUse" alignment="0 0" imageRepeat="None" />
    <mask fill="white" id="Clip448">
      <path d="M 0 68  L 0 0  L 151 0  L 151 68  L 0 68  Z " fill-rule="evenodd" />
    </mask>
  </defs>
  <g transform="matrix(1 0 0 1 -531 -1174 )">
    <path d="M 0 68  L 0 0  L 151 0  L 151 68  L 0 68  Z " fill-rule="nonzero" fill="rgba(242, 242, 242, 1)" stroke="none" transform="matrix(1 0 0 1 531 1174 )" class="fill" />
    <path d="M 0 68  L 0 0  L 151 0  L 151 68  L 0 68  Z " stroke-width="2" stroke-dasharray="0" stroke="rgba(121, 121, 121, 1)" fill="none" transform="matrix(1 0 0 1 531 1174 )" class="stroke" mask="url(#Clip448)" />
    <path d="M 149.9876244029668 0.45590424237257215  L 1.0123755970332116 67.54409575762743  M 1.0123755970332116 0.45590424237257215  L 149.9876244029668 67.54409575762743  " stroke-width="1" stroke-dasharray="0" stroke="rgba(121, 121, 121, 1)" fill="none" transform="matrix(1 0 0 1 531 1174 )" class="stroke" />
  </g>
</svg>